<?xml version="1.0" encoding="utf-8"?>
<!-- Generator: Adobe Illustrator 23.0.1, SVG Export Plug-In . SVG Version: 6.00 Build 0)  -->
<svg version="1.1" id="Layer_1" xmlns="http://www.w3.org/2000/svg" xmlns:xlink="http://www.w3.org/1999/xlink" x="0px" y="0px" viewBox="0 0 105.35 100" style="enable-background:new 0 0 105.35 100;" xml:space="preserve" class="hedhc605etcc2802bi" >
<style type="text/css">.hedhc605etcc2802bi .st0{fill:#231F20;} .hedhc605etcc2802bi .st1{fill:#2E368E;} .hedhc605etcc2802bi .st2{fill:url(#SVGID_1_);} </style>
<g>
	<g>
		<path class="st0" d="M30.93159,64.14509c-0.51924,0-0.96338-0.15921-1.33224-0.47818
			c-0.36885-0.31861-0.55328-0.76959-0.55328-1.35259c0-0.52807,0.18893-0.9632,0.56697-1.30468
			c0.37786-0.34166,0.8175-0.5124,1.31855-0.5124c0.4825,0,0.91061,0.15507,1.28415,0.46449
			c0.37336,0.30978,0.56013,0.76076,0.56013,1.35258c0,0.57381-0.18227,1.02264-0.54644,1.34592
			C31.86508,63.98353,31.43229,64.14509,30.93159,64.14509z M32.77587,67.99807V78.7777c0,0.74689-0.17758,1.31152-0.53275,1.69407
			s-0.80615,0.57381-1.35259,0.57381s-0.99058-0.19595-1.33205-0.58733c-0.34166-0.39154-0.5124-0.95167-0.5124-1.68056V68.10722
			c0-0.73771,0.17074-1.29316,0.5124-1.66669c0.34148-0.37336,0.78562-0.56013,1.33205-0.56013s0.99742,0.18677,1.35259,0.56013
			C32.59829,66.81406,32.77587,67.33331,32.77587,67.99807z"/>
		<path class="st0" d="M49.89502,64.02225H45.4684v14.55049c0,0.83821-0.18695,1.45975-0.5603,1.86498
			c-0.37354,0.40506-0.85622,0.60786-1.44822,0.60786c-0.60101,0-1.0909-0.20478-1.46858-0.6147
			c-0.37822-0.40992-0.56715-1.02911-0.56715-1.85814V64.02225h-4.42662c-0.69232,0-1.20688-0.15255-1.54386-0.45783
			c-0.33698-0.30492-0.50555-0.70799-0.50555-1.20904c0-0.51924,0.17542-0.92898,0.52608-1.22958
			c0.35049-0.30059,0.85838-0.45098,1.52333-0.45098h12.89749c0.70115,0,1.22273,0.15507,1.56421,0.46467
			c0.34166,0.3096,0.5124,0.71502,0.5124,1.21589c0,0.50105-0.17308,0.90413-0.51906,1.20904
			C51.10622,63.86971,50.58698,64.02225,49.89502,64.02225z"/>
		<path class="st0" d="M62.76513,74.37846h-7.29568c0.009,0.84703,0.17974,1.59393,0.51222,2.2405
			c0.33247,0.64694,0.77409,1.13412,1.32539,1.46191c0.55094,0.32797,1.15897,0.49187,1.82392,0.49187
			c0.44612,0,0.85388-0.05223,1.22273-0.15705c0.36885-0.10464,0.72636-0.26854,1.07253-0.49187
			c0.34598-0.22315,0.66477-0.46215,0.95636-0.71736c0.29141-0.25484,0.66945-0.60119,1.13394-1.0383
			c0.19127-0.16389,0.46467-0.24584,0.81984-0.24584c0.38254,0,0.69214,0.10464,0.92898,0.3141
			c0.23684,0.20964,0.35535,0.50555,0.35535,0.88809c0,0.33716-0.13219,0.73105-0.39623,1.18185
			c-0.26439,0.4508-0.66261,0.88359-1.19553,1.29783c-0.53275,0.4146-1.2022,0.75842-2.00835,1.03165
			c-0.80615,0.27322-1.73297,0.40974-2.78028,0.40974c-2.39576,0-4.25822-0.68296-5.58793-2.04923
			c-1.33007-1.36628-1.99484-3.21973-1.99484-5.56074c0-1.10188,0.16407-2.12452,0.49187-3.06718
			c0.32797-0.94267,0.80615-1.75098,1.43454-2.42512c0.62856-0.67395,1.40266-1.19067,2.32263-1.5507
			c0.91998-0.35967,1.94009-0.5396,3.06052-0.5396c1.45705,0,2.70716,0.30744,3.75032,0.92213
			c1.0428,0.61488,1.82392,1.40968,2.34299,2.38423c0.51924,0.97472,0.77877,1.96729,0.77877,2.97839
			c0,0.93816-0.26871,1.5462-0.80597,1.82392C64.49557,74.2396,63.73967,74.37846,62.76513,74.37846z M55.46944,72.26061h6.76294
			c-0.09113-1.27496-0.43513-2.22898-1.03164-2.86223c-0.59651-0.63289-1.38213-0.94951-2.35667-0.94951
			c-0.92916,0-1.69209,0.32112-2.28841,0.9632C55.95897,70.05415,55.59678,71.00366,55.46944,72.26061z"/>
		<path class="st0" d="M82.35711,76.4277c0,0.46449-0.13904,0.96104-0.41676,1.48929
			c-0.27791,0.52824-0.70152,1.03146-1.27065,1.50964c-0.56931,0.47818-1.28667,0.86307-2.15189,1.15447
			c-0.8654,0.29141-1.83995,0.43729-2.92364,0.43729c-2.30463,0-4.10351-0.67161-5.39684-2.01519
			c-1.29333-1.3434-1.93991-3.14463-1.93991-5.4035c0-1.53036,0.29573-2.88294,0.88792-4.05776
			c0.592-1.17501,1.44823-2.08363,2.56866-2.72571c1.12025-0.64226,2.45915-0.9632,4.0167-0.9632
			c0.96536,0,1.8513,0.1412,2.65745,0.42342c0.80597,0.28259,1.48911,0.64694,2.04923,1.09306
			c0.5603,0.44648,0.98824,0.92231,1.28432,1.42769c0.29591,0.50555,0.44414,0.97689,0.44414,1.41418
			c0,0.4463-0.16641,0.82434-0.49871,1.13394c-0.33265,0.30978-0.73573,0.46449-1.20922,0.46449
			c-0.30978,0-0.56697-0.07961-0.77193-0.239c-0.20496-0.15939-0.43495-0.41676-0.68998-0.77193
			c-0.45548-0.69215-0.93132-1.21139-1.42769-1.55755c-0.49655-0.34616-1.1271-0.51924-1.89218-0.51924
			c-1.10224,0-1.99034,0.43045-2.66429,1.29117c-0.67413,0.86073-1.01093,2.03807-1.01093,3.53168
			c0,0.70151,0.08646,1.34574,0.25954,1.93325c0.1729,0.5875,0.42361,1.08855,0.7514,1.50297
			c0.32797,0.41442,0.7242,0.72871,1.18869,0.94267c0.46449,0.21414,0.97455,0.32095,1.53017,0.32095
			c0.74671,0,1.3868-0.1729,1.91956-0.51906c0.53293-0.34616,1.00426-0.87441,1.41418-1.58492
			c0.22747-0.41875,0.4735-0.74672,0.73771-0.98373c0.26403-0.23666,0.5875-0.35517,0.97004-0.35517
			c0.45531,0,0.83335,0.17308,1.13394,0.51924C82.20673,75.6673,82.35711,76.03615,82.35711,76.4277z"/>
		<path class="st0" d="M88.55975,62.60123v5.53336c0.4735-0.54644,0.936-0.97905,1.3868-1.29784
			c0.45081-0.31879,0.94952-0.55797,1.49596-0.71736c0.54662-0.15921,1.13412-0.239,1.7625-0.239
			c0.94717,0,1.78754,0.20028,2.52074,0.60101c0.73303,0.40091,1.30918,0.98373,1.72829,1.74882
			c0.26404,0.44648,0.4418,0.94501,0.53293,1.49613c0.09096,0.55112,0.13652,1.18653,0.13652,1.90587v7.14548
			c0,0.74689-0.17074,1.31152-0.51221,1.69407c-0.34166,0.38255-0.79481,0.57381-1.35944,0.57381
			c-1.22975,0-1.84445-0.7559-1.84445-2.26788v-6.29845c0-1.19301-0.17758-2.11082-0.53293-2.7529
			c-0.35516-0.64226-1.0293-0.9632-2.02204-0.9632c-0.66494,0-1.26379,0.18911-1.79654,0.56697
			c-0.53294,0.37804-0.9315,0.89494-1.19554,1.5507c-0.20045,0.55563-0.30059,1.54385-0.30059,2.96471v4.93217
			c0,0.73771-0.16624,1.30036-0.49871,1.68723c-0.33247,0.38705-0.79462,0.58066-1.38663,0.58066
			c-1.22958,0-1.84445-0.7559-1.84445-2.26788V62.60123c0-0.7559,0.16155-1.32287,0.48502-1.70091
			c0.32311-0.37786,0.77644-0.56697,1.35944-0.56697c0.592,0,1.05415,0.19127,1.38663,0.57381S88.55975,61.85451,88.55975,62.60123z
			"/>
	</g>
	<g>
		<path class="st0" d="M32.12677,85.16855v11.84513h6.68297c0.53293,0,0.94177,0.12968,1.22669,0.38867
			c0.28493,0.25899,0.42757,0.58462,0.42757,0.97688c0,0.39966-0.14084,0.72348-0.42199,0.97131
			c-0.28133,0.24801-0.69214,0.37192-1.23228,0.37192h-7.95955c-0.71808,0-1.23426-0.15903-1.54872-0.47728
			c-0.31464-0.31824-0.47187-0.83262-0.47187-1.54314V85.16855c0-0.66603,0.14985-1.16564,0.44972-1.49866
			c0.29969-0.33302,0.69376-0.49961,1.18221-0.49961c0.49583,0,0.89728,0.16479,1.20454,0.49403
			C31.97314,83.99372,32.12677,84.49513,32.12677,85.16855z"/>
		<path class="st0" d="M50.07782,98.29044c-0.73285,0.56985-1.44156,0.99724-2.12596,1.28217
			C47.26711,99.85735,46.49932,100,45.64832,100c-0.77715,0-1.45993-0.15363-2.04815-0.46071
			c-0.5884-0.30708-1.04191-0.7233-1.35997-1.24885c-0.31824-0.52554-0.47746-1.09521-0.47746-1.70973
			c0-0.82867,0.26259-1.53558,0.78832-2.12038c0.52536-0.58444,1.24686-0.97689,2.16468-1.17663
			c0.19235-0.04448,0.66981-0.14444,1.43219-0.29987c0.76202-0.15543,1.41526-0.29771,1.95936-0.42738
			c0.54392-0.12932,1.13412-0.28673,1.77061-0.47169c-0.0371-0.79931-0.19811-1.38591-0.48286-1.75963
			c-0.28511-0.37372-0.87531-0.56067-1.77061-0.56067c-0.76995,0-1.34898,0.10735-1.73747,0.32203
			c-0.38848,0.21468-0.7215,0.53671-0.99904,0.96572c-0.27754,0.42937-0.47386,0.71249-0.58841,0.84938
			c-0.11491,0.13688-0.36075,0.20531-0.73825,0.20531c-0.34058,0-0.63469-0.10914-0.88251-0.32743
			c-0.24818-0.21828-0.37192-0.49781-0.37192-0.8382c0-0.53294,0.18875-1.05091,0.56607-1.55413
			c0.3775-0.50321,0.9659-0.91763,1.76521-1.24344c0.7993-0.32563,1.79456-0.48845,2.98632-0.48845
			c1.33206,0,2.37918,0.15723,3.14157,0.47188c0.7622,0.31464,1.30072,0.81227,1.61536,1.49306
			c0.31446,0.68098,0.47169,1.58385,0.47169,2.70878c0,0.71052-0.0018,1.31369-0.00558,1.80952
			c-0.00378,0.49583-0.00937,1.04731-0.01657,1.65408c0,0.57003,0.09438,1.16383,0.28313,1.78178
			c0.18875,0.61794,0.28312,1.01579,0.28312,1.19337c0,0.31086-0.14624,0.59399-0.43855,0.8492
			C52.66611,99.87231,52.3349,100,51.96496,100c-0.31086,0-0.61794-0.14625-0.92142-0.43855
			C50.74007,99.26913,50.41804,98.84553,50.07782,98.29044z M49.8779,93.90525c-0.44396,0.16299-1.08981,0.335-1.93721,0.51637
			c-0.84757,0.18137-1.43399,0.31464-1.75962,0.39965c-0.32563,0.08501-0.63649,0.2516-0.9324,0.49943
			c-0.29609,0.24818-0.44414,0.59399-0.44414,1.03812c0,0.45891,0.1738,0.8492,0.52176,1.17104
			c0.34778,0.32203,0.80309,0.48304,1.36555,0.48304c0.59939,0,1.15267-0.13129,1.65967-0.39425
			c0.50681-0.26259,0.87873-0.60119,1.11575-1.01561c0.27358-0.45891,0.41064-1.21373,0.41064-2.26482V93.90525z"/>
		<path class="st0" d="M58.42604,84.90217v4.62923c0.56985-0.592,1.15069-1.04533,1.74287-1.35997
			c0.59201-0.31446,1.32467-0.47187,2.19818-0.47187c1.00642,0,1.88894,0.23882,2.64754,0.71609
			c0.75861,0.47746,1.34701,1.16942,1.76521,2.07607c0.41802,0.90665,0.6273,1.98151,0.6273,3.22496
			c0,0.91763-0.11671,1.75945-0.34976,2.52543s-0.57166,1.4304-1.01579,1.99268c-0.44414,0.56264-0.98248,0.99742-1.61518,1.3045
			C63.79353,99.84637,63.09598,100,62.33377,100c-0.46629,0-0.90485-0.05547-1.31548-0.1666
			c-0.41082-0.11095-0.76059-0.25701-1.04911-0.43838c-0.28871-0.18137-0.53491-0.36813-0.73825-0.56067
			c-0.2037-0.19235-0.47187-0.48106-0.80489-0.86594v0.2997c0,0.57003-0.13706,1.00102-0.41082,1.29333
			C57.74146,99.85375,57.39368,100,56.97169,100c-0.42919,0-0.77157-0.14625-1.02678-0.43855
			c-0.25539-0.29231-0.38308-0.7233-0.38308-1.29333V85.03527c0-0.61416,0.12391-1.07847,0.37192-1.39311
			c0.24783-0.31464,0.59399-0.47188,1.03794-0.47188c0.46629,0,0.82524,0.14985,1.07685,0.44955
			C58.30015,83.9197,58.42604,84.34708,58.42604,84.90217z M58.5703,93.90525c0,1.20652,0.27574,2.13352,0.82704,2.781
			c0.5513,0.64766,1.27478,0.97131,2.17044,0.97131c0.7622,0,1.41904-0.33103,1.97034-0.99345
			c0.5513-0.66243,0.82722-1.61158,0.82722-2.84764c0-0.7993-0.11491-1.48749-0.34418-2.06472
			c-0.22945-0.57742-0.55508-1.02318-0.97689-1.33782c-0.42199-0.31446-0.91421-0.47187-1.4765-0.47187
			c-0.57742,0-1.0918,0.15741-1.54314,0.47187c-0.45152,0.31464-0.80669,0.76977-1.06568,1.36555
			C58.6998,92.37526,58.5703,93.08379,58.5703,93.90525z"/>
		<path class="st0" d="M79.59628,96.03679c0,0.83641-0.20351,1.55251-0.61055,2.14812
			c-0.40704,0.59579-1.00841,1.04731-1.80393,1.35439C76.38609,99.84637,75.4184,100,74.27869,100
			c-1.08783,0-2.02042-0.1666-2.79739-0.49961c-0.77715-0.33302-1.35078-0.74924-1.72072-1.24885
			c-0.3703-0.49961-0.55508-1.00084-0.55508-1.50423c0-0.33302,0.11815-0.61794,0.35516-0.85477
			c0.23684-0.23684,0.53654-0.35535,0.89926-0.35535c0.31807,0,0.56229,0.0778,0.73267,0.23323
			c0.1702,0.15543,0.33301,0.37372,0.48844,0.65486c0.31086,0.54031,0.68278,0.94375,1.11575,1.21013
			c0.43298,0.26637,1.023,0.39965,1.77061,0.39965c0.60677,0,1.10458-0.1349,1.49307-0.40524
			c0.38866-0.26998,0.58282-0.57904,0.58282-0.927c0-0.53275-0.20172-0.92142-0.60497-1.16563
			c-0.40343-0.24422-1.06767-0.47728-1.99268-0.69935c-1.04353-0.259-1.89272-0.53095-2.54776-0.81588
			c-0.65504-0.28492-1.1786-0.66062-1.57088-1.12691c-0.39227-0.46629-0.5884-1.03974-0.5884-1.72072
			c0-0.60677,0.18137-1.18041,0.5441-1.72073c0.36237-0.54013,0.89729-0.97131,1.60401-1.29333
			c0.70673-0.32185,1.55989-0.48286,2.55893-0.48286c0.78436,0,1.48929,0.08159,2.11479,0.24422
			c0.62533,0.16299,1.14709,0.38128,1.56529,0.65504c0.41802,0.27394,0.73645,0.57724,0.95473,0.91026
			c0.21829,0.33301,0.32743,0.65882,0.32743,0.97688c0,0.34796-0.11652,0.63289-0.34958,0.85496
			c-0.23324,0.22189-0.56445,0.33302-0.99364,0.33302c-0.31086,0-0.57543-0.08879-0.79372-0.26656
			c-0.21829-0.17758-0.46809-0.44395-0.74942-0.7993c-0.22945-0.29591-0.49943-0.53275-0.81029-0.71033
			c-0.31087-0.17776-0.73267-0.26656-1.2656-0.26656c-0.5477,0-1.003,0.11652-1.36555,0.34976
			c-0.36255,0.23306-0.54391,0.52374-0.54391,0.87153c0,0.31824,0.13328,0.57903,0.39965,0.78255
			c0.26656,0.2037,0.62533,0.37192,1.07685,0.5052c0.45134,0.13309,1.07307,0.29609,1.86498,0.48844
			c0.93997,0.22945,1.70776,0.5034,2.30354,0.82146c0.59579,0.31824,1.04731,0.69376,1.35439,1.12674
			C79.44266,94.98768,79.59628,95.48171,79.59628,96.03679z"/>
	</g>
	<path class="st1" d="M20.40564,88.23645l0.50429-0.84106l-0.98,0.03588l-0.34314-0.91864l-0.48881,0.66119
		C8.19696,77.88972,1.50899,64.42439,0.73666,50.16425l-0.73663,0.03998C0.77241,64.46581,7.37919,77.94326,18.16405,87.3429
		l0.16065,0.60126l-0.8193,0.53897l0.89854,0.39288l-0.08942,0.97657l0.86738-0.45753l0.70777,0.67877l0.18308-0.9634
		l0.97198-0.13015L20.40564,88.23645z"/>
	<path class="st1" d="M9.42266,58.38083l-0.67994-0.36014l0.12729-0.75883l-0.70552,0.30706l-0.51393-0.57264l-0.05129,0.19067
		c-0.66234-2.4535-0.99859-4.99055-0.99859-7.55812H5.86298c0,2.76805,0.38461,5.50076,1.1352,8.13687l-0.31554,0.01839
		l0.45634,0.61949l-0.44391,0.62848l0.76887,0.02945l0.21455,0.73892l0.50245-0.58277l0.71146,0.29296l-0.14237-0.75617
		L9.42266,58.38083z"/>
	<path class="st1" d="M24.51707,71.97861l0.37021-0.73521l-0.81813,0.09057l-0.344-0.74782l-0.43932,0.69611l-0.26394-0.06516
		c-4.81398-7.03838-7.35994-15.25553-7.35994-23.83689h-0.73771c0,8.86253,2.66861,17.34337,7.71128,24.57569l-0.53104,0.40833
		l0.77643,0.27338l-0.0145,0.82301l0.69781-0.43657l0.63437,0.52451l0.09379-0.81779l0.80561-0.16896L24.51707,71.97861z"/>
	<radialGradient id="SVGID_1_" cx="52.94641" cy="50.14668" r="37.3791" gradientUnits="userSpaceOnUse">
		<stop  offset="0" style="stop-color:#4EBAE3"/>
		<stop  offset="1" style="stop-color:#2E368E"/>
	</radialGradient>
	<path class="st2" d="M68.07227,42.27711c-1.9771-2.21583-4.16717-3.72232-5.66412-4.60001l0.2046,1.08799l-1.73621-0.71535
		l-1.22643,1.42193l-0.5232-1.80344L57.2505,37.5959l1.08378-1.5335l-1.11341-1.51212l1.87467-0.1088l0.48804-1.81325
		l1.25389,1.39782l1.72198-0.74897l-0.31113,1.85186l1.65921,0.87932l-0.7278,0.40402
		c1.5932,0.93407,3.88725,2.52219,5.99335,4.88255c2.99514,3.35661,3.48485,8.57983,3.50412,8.80064l9.28423,0.06878
		c-0.04557-0.60779-0.67837-8.09716-4.39492-13.27497c-2.76155-3.84735-5.37982-6.06697-7.1752-7.28601l0.53613,1.65933
		l-2.49612-0.67528l-1.42818,2.15574l-1.02835-2.37261l-2.57586,0.22752l1.21382-2.2833l-1.78394-1.87206l2.542-0.47462
		l0.35138-2.5619l1.95594,1.69145l2.22205-1.3226l-0.10288,2.58383l2.41948,0.91264l-1.26434,0.92842
		c1.93504,1.26787,4.79971,3.6315,7.81286,7.82927c4.10819,5.72355,4.65067,13.74632,4.67174,14.0851l6.76222,0.05005
		c-0.06232-0.84744-1.25709-15.18316-10.45473-23.57084c-8.19495-7.47345-15.88669-8.1474-19.17126-8.43521
		c-0.36579-0.03206-0.68404-0.05997-0.95041-0.09131c-1.29099-0.15145-2.47734-0.20978-3.50259-0.2184l1.23453,2.91543
		l-3.14742-0.56022l-1.52441,2.81004l-1.52441-2.81004l-3.14742,0.56022l1.24655-2.94386l-2.40039-2.11148l3.0788-0.86088
		l0.15417-3.19319l2.5927,1.87037l2.5927-1.87037l0.15417,3.19319l3.0788,0.86088l-0.81209,0.71436
		c0.66098,0.03629,1.36087,0.09217,2.09813,0.17862c0.25431,0.02972,0.55814,0.05619,0.90737,0.08681
		c3.43316,0.30078,11.47322,1.00517,20.03667,8.81487c9.88217,9.01191,10.8976,23.97934,10.93597,24.61205l3.38147,0.04897
		c-0.04836-0.71236-0.96266-12.72549-7.59142-21.3298c-7.49606-9.72987-16.34109-13.01974-19.16973-13.86519l0.00468,1.0021
		l-1.13408-0.7301l-1.05051,0.84591l-0.13634-1.34187l-1.31634-0.29391l0.96414-0.94321l-0.59092-1.21242l1.33854,0.16572
		l0.57948-1.21794l0.70502,1.14983l1.3135-0.30631l-0.45944,1.2681l0.26826,0.21187
		c3.10208,0.9157,12.0966,4.29973,19.85259,14.3669c7.08317,9.19435,7.86806,21.65797,7.89796,22.18406l8.81843,0.04626
		C104.00742,22.23345,80.93842,0,52.67502,0S1.34257,22.23345,0.00003,50.16425h71.2013
		C71.13933,49.59324,70.57717,45.08441,68.07227,42.27711z"/>
</g>
</svg>
