<?xml version="1.0" encoding="utf-8"?>
<!-- Generator: Adobe Illustrator 23.0.1, SVG Export Plug-In . SVG Version: 6.00 Build 0)  -->
<svg version="1.1" id="Layer_1" xmlns="http://www.w3.org/2000/svg" xmlns:xlink="http://www.w3.org/1999/xlink" x="0px" y="0px" viewBox="0 0 100 100.189" style="enable-background:new 0 0 100 100.189;" xml:space="preserve" class="h04cetd22ce4o76d2r_er8" >
<style type="text/css">.h04cetd22ce4o76d2r_er8 .st0{fill:#1A477E;} .h04cetd22ce4o76d2r_er8 .st1{fill:#FFFFFF;} .h04cetd22ce4o76d2r_er8 .st2{fill:#AB2442;} </style>
<g>
	<g>
		<circle class="st0" cx="50.18814" cy="49.6082" r="32.4378"/>
		<path class="st1" d="M24.3973,48.08932c0,0,0.391-0.31581,0.09023-0.31581s-1.90987,0-2.0753,0s-0.34588,0.22557-0.48123,0.25565
			c-0.13535,0.03008-0.60154,0.22557-0.67673,0.3158c-0.07519,0.09023-0.36092,0.12031-0.36092,0.67673
			c0,0.55642,0,2.91745,0,3.15806c0,0.24062,0.27069,0.16542,0.27069,0.45115s0.01504,1.26323,0.03008,1.36849
			c0.01504,0.10527,0.22557,0.16542,0.21054,0.31581s-0.04511,0.55642,0.04511,0.7068c0.09023,0.15039,0,0.31581,0.28573,0.33084
			c0.28573,0.01504,0.85719,0.10527,0.85719,0.10527s0.02349,0.10527,0.15461,0.1955
			c0.13112,0.09023,0.3567,0.28573,0.52212,0.27069s0.55642,0.04511,0.7068-0.28573c0.15038-0.33084,0.04512-0.5865,0.1955-0.70681
			s0.5113-0.33084,0.54138-0.49627c0.03008-0.16542,0.24061-0.33084,0.27069-0.67673s0.06015-0.52634,0.16542-0.60154
			s0.15038-0.24062,0.15038-0.45115s0.03008-0.63161,0.10527-0.76696c0.07519-0.13535,0.43611-0.33084,0.49627-0.51131
			c0.06015-0.18046,0.07519-0.28573,0.18046-0.37596c0.10527-0.09023,0.25565-0.21054,0.24061-0.63161
			c-0.01504-0.42107-0.21054-0.33084-0.22558-0.48123c-0.01504-0.15038-0.01504-0.45115-0.03008-0.72184
			c-0.01504-0.27069,0-0.37596,0.09023-0.54138c0.09023-0.16542,0.18255-0.13535,0.16647-0.43611
			c-0.01608-0.30077,0.12135-0.55642,0-0.5865c-0.12135-0.03008-0.63266,0-0.63266,0s-0.09023,0.37596-0.10527,0.52634
			s-0.07519,0.43611-0.16542,0.52634c-0.09023,0.09023-0.15038,0.04511-0.1955,0.25565
			c-0.04511,0.21054-0.15038,0.27069-0.18046,0.36092s-0.06015,0.20624-0.09023,0.37381
			c-0.03008,0.16757-0.03008,0.37811-0.13535,0.46834c-0.10527,0.09023-0.16542,0.09023-0.25565,0.18046
			c-0.09023,0.09023-0.07519,0.07519-0.1955,0.13535c-0.12031,0.06015-0.10527,0.07519-0.1955,0.10527
			c-0.09023,0.03008,0.13535,0.10527-0.09023,0.03008c-0.22557-0.07519-0.13535,0.12031-0.22557-0.07519
			c-0.09023-0.1955-0.23415-0.21054-0.22234-0.33084c0.0118-0.12031-0.07196-0.04512,0-0.24061
			c0.07196-0.1955,0.087-0.36092,0.11707-0.48123c0.03008-0.1203,0.06015-0.13535,0.03008-0.33084
			c-0.03008-0.1955-0.12031-0.1955,0.06015-0.391C24.02135,48.57055,24.3973,48.08932,24.3973,48.08932z"/>
		<path class="st1" d="M23.79577,45.86364c0.21054,0.1955,0.15038,0.37596,0.72184,0.37596s1.32338,0,1.54895,0
			c0.22558,0,0.46619-0.16542,0.49627-0.37596s-0.12031-0.25565-0.25565-0.36092c-0.13535-0.10527-0.5113-0.25565-0.66169-0.25565
			c-0.15038,0-1.57903,0.04511-1.62415,0c-0.04512-0.04512-0.27927-0.18046-0.38777-0.22558
			c-0.1085-0.04511-0.36415-0.06015-0.42431-0.06015c-0.06015,0-0.15038,0.12031-0.15038,0.31581s0.07519,0.42107,0.18046,0.48123
			C23.34462,45.81853,23.79577,45.86364,23.79577,45.86364z"/>
		<path class="st1" d="M43.54117,48.01413c0.32951-0.02969,0.5113-0.15039,0.43611-0.40604
			c-0.07519-0.25565-0.36092-0.37596-0.43611-0.67673c-0.07519-0.30077,0.22652-0.75192,0.22652-0.75192h2.19466
			c0,0,0.15038,1.00757,0.37596,1.23315c0.22557,0.22557,0.96246,0.43611,1.06773,0.52634c0.10527,0.09023,0.391,0,0.18046-0.18046
			c-0.21054-0.18046-0.45115-0.69176-0.45115-1.03765c0-0.34588,0-0.99253,0-1.12788s0.25565-0.54138,0.45115-0.61657
			c0.1955-0.0752,0.28573-0.12031,0.52634-0.22558c0.24062-0.10527,0.30077-0.04511,0.30077-0.25565
			c0-0.21054,0.27069-0.61657,0.30077-1.05268c0.03008-0.43612,0.03008-0.94742,0.16542-1.11284
			c0.13535-0.16542,0.3158-0.18046,0.58649-0.1955c0.27069-0.01504,0.68532-0.01504,0.74118-0.1203
			c0.05585-0.10527,0.28143-0.15039,0.49197-0.16542s0.81207,0.06015,0.94742,0s0.22557-0.28573,0.48123-0.30077
			s0.60154,0.18046,0.64665,0c0.04512-0.18046,0.04512-0.37596-0.07519-0.55642c-0.1203-0.18046-0.22557-0.45115-0.28573-0.52634
			s-0.12031-0.30077-0.28573-0.30077c-0.16542,0-0.63161-0.24061-0.52634-0.43611c0.10527-0.1955,0.33084-0.33084,0.33084-0.33084
			s0.27069,0.07519,0.21054-0.16542c-0.06015-0.24061,0.03008-0.63161-0.03008-0.7068s-0.21054-0.12031-0.40604-0.30077
			c-0.1955-0.18046-0.34588-0.45115-0.43612-0.58649c-0.09023-0.13535-0.5865-1.11284-0.69176-1.26323
			c-0.10527-0.15038-0.55642-0.45115-0.782-0.13535c-0.22557,0.31581-1.89484,2.15049-2.13545,2.34599
			c-0.24062,0.1955-0.40604,0.1955-0.43612,0.40604C47.1955,39.20164,47,39.44225,46.75938,39.63775
			c-0.24061,0.1955-0.75192,0.66169-0.72184,0.28573c0.03008-0.37596,0.06015-0.5865,0-0.96246
			c-0.06015-0.37596,0-0.43611-0.25565-0.72184c-0.25565-0.28573-0.28573-0.27069-0.34588-0.51131
			c-0.06015-0.24061,0.13535-0.67673,0.21054-0.78199c0.07519-0.10527,0.63161-0.18046,0.66169-0.51131
			c0.03008-0.33084-0.03008-0.48123-0.10527-0.64665c-0.07519-0.16542,0-0.42107,0.15038-0.58649
			c0.15039-0.16542,0.88726-0.24062,1.26323-0.75192c0.37596-0.51131,0.27069-0.9775,0.37596-1.173
			c0.10527-0.1955,0.00069-0.46619,0.17328-0.67673c0.1726-0.21054,0.24779-0.43611,0.27787-0.52634
			c0.03008-0.09023,0.1955-0.13534,0.12031-0.31581c-0.07519-0.18046-0.21054-0.18046-0.21054-0.36092
			c0-0.18046,0.01504-0.69177,0.06015-0.69177s0.36092-0.27069,0.391-0.42107c0.03008-0.15038-0.25565-0.391-0.07519-0.5865
			c0.18046-0.1955,0.36092-0.36092,0.5113-0.18046c0.15038,0.18046,0.87223,0.782,0.9023,0.84215
			c0.03008,0.06015-0.11171,1.24819,0.06445,1.39857c0.17616,0.15038,0.67243,0.27069,0.65739,0.82711
			s-0.36092,0.76696-0.5113,0.97749c-0.15039,0.21054-0.28573,0.85719-0.04512,0.9775
			c0.24061,0.12031,0.52634,0.22557,0.73688,0.42107s0.391,0.46619,0.5865,0.55642c0.1955,0.09023,0.46619,0.03008,0.55642-0.34588
			c0.09023-0.37596,0.10527-0.60154,0.18046-0.84215c0.0752-0.24062,0.03008-0.36092,0.22558-0.48123
			c0.1955-0.12031,0.57146-0.24062,0.55642-0.5865s-0.18046-1.32338-0.40604-1.6843s-0.30077-0.42108-0.37596-0.60154
			c-0.07519-0.18046-0.10527-0.25565-0.16542-0.33084s-0.22557-0.09023-0.34588-0.1955
			c-0.12031-0.10527-0.48123-0.10527-0.54138-0.1955c-0.06015-0.09023-0.12031-0.09023-0.25565-0.24061
			c-0.13535-0.15038-0.22557-0.33084-0.31581-0.391c-0.09023-0.06015-0.15038-0.07993-0.13535-0.18283
			c0.01504-0.1029,0.15039-0.41871,0.45115-0.58413c0.30077-0.16542,0.69176-0.25565,0.91734-0.22557
			c0.22557,0.03008,0.5113,0.15038,0.61657,0.07519c0.10527-0.07519,0.60154-0.40604,0.7068-0.43611
			c0.10527-0.03008,0.24062-0.18046,0.37596-0.13535c0.13535,0.04511,0.76696-0.00838,0.82711-0.00838
			s0.10527,0.35426-0.13535,0.51968c-0.24061,0.16542-0.7068,0.46619-0.82711,0.79704
			c-0.12031,0.33084-0.21054,0.75192-0.07519,1.02261s0.61657,0.45115,0.87223,0.49627
			c0.25565,0.04511,0.57146-0.27069,0.63161-0.10527c0.06015,0.16542,0.31581,0.60154,0.16542,0.76696
			c-0.15038,0.16542-0.16542,1.02261,0.18046,1.47376c0.34588,0.45115,0.90231,1.42865,1.12788,1.80461
			c0.22557,0.37596,1.56399,1.39857,1.63918,1.59407s0.67673,0.61657,0.85719,0.57146
			c0.18046-0.04511,0.21054-0.07519,0.1955-0.18046c-0.01504-0.10527-0.10527-0.46619-0.25565-0.67673
			c-0.15038-0.21054-0.13535-0.45115-0.10527-0.66169c0.03008-0.21054,0.06015-0.391,0.0752-0.55642
			c0.01504-0.16542-0.03836-0.34589,0.2891-0.63161s0.32747-0.57146,0.53801-0.73688
			c0.21054-0.16542,0.13535-0.42107,0.07519-0.63161s-0.12031-0.1955-0.21054-0.31581
			c-0.09023-0.12031-0.12031-0.10527-0.16542-0.22557c-0.04511-0.12031-0.27069-0.54138-0.16542-0.76696
			c0.10527-0.22558,0.04512-0.40604,0.04512-0.40604s0.48875-0.16542,0.56018-0.22558c0.07143-0.06015,0.06392-0.67673,0-0.87223
			c-0.06391-0.1955-0.30453-0.391-0.36468-0.5865c-0.06015-0.1955,0.15039-0.43611-0.04511-0.45115
			c-0.1955-0.01504-0.31581-0.03008-0.22558-0.15038c0.09023-0.12031,0.52634-0.33084,0.75192-0.60154
			c0.22557-0.27069,0.34588-0.45115,0.28573-0.64665s-0.64665-0.81207-0.82711-0.94742
			c-0.18046-0.13535-0.45115-0.391-0.55642-0.57146c-0.10527-0.18046-0.10527-0.391-0.45115-0.55642
			c-0.34589-0.16542-0.49627-0.31581-0.67673-0.22558c-0.18046,0.09023-0.40604,0.36092-0.57146,0.37596
			c-0.16542,0.01504-0.48123,0.09023-0.49627-0.03008c-0.01504-0.12031-0.18046-0.15038-0.391-0.10527
			s-0.33084,0.24061-0.391,0.42108c-0.06015,0.18046-0.57146,0.96246-0.76696,1.12788s-0.88726,0.06015-1.02261,0.07519
			c-0.13535,0.01504-0.70681,0-0.75192-0.01504c-0.04512-0.01504-0.73688-0.49627-0.94742-0.55642
			c-0.21054-0.06015-0.63161-0.33084-1.15796,0.06015c-0.52634,0.391-0.93238,0.72184-1.2933,0.7068
			c-0.36092-0.01504-0.57146-0.01504-0.64665,0.18046c-0.0752,0.1955-0.21054,0.34588-0.25565,0.391
			c-0.04512,0.04511-0.391,0.22558-0.51131,0.21054c-0.12031-0.01504-0.40604-0.09023-0.40604-0.09023
			s-0.15038-0.12031-0.21054-0.10527c-0.06015,0.01504-0.10527,0.16542-0.09023,0.22558
			c0.01504,0.06015-0.49627,0.60154-0.60154,1.11284c-0.10527,0.5113,0.12031,1.06773,0.22557,1.24819
			c0.10527,0.18046,0.10527,0.42108,0.06015,0.45115c-0.04512,0.03008-0.07519-0.01504-0.16542,0.12031
			c-0.09023,0.13535-0.03008,0.1955-0.13535,0.27069c-0.10527,0.07519-0.12031,0.06015-0.24062,0.13535
			s-0.01504,0.01504-0.24062,0.13535c-0.22557,0.12031,0.04512,0.04511-0.42107,0.22557
			c-0.46619,0.18046-0.42107,0.31581-0.78199,0.30077c-0.36092-0.01504-0.72184-0.27069-0.93238-0.391
			c-0.21054-0.12031-0.42107-0.1955-0.46619-0.18046c-0.04512,0.01504-0.51131,0.06015-0.72184,0.10527s-0.63161,0-0.7068-0.09023
			c-0.07519-0.09023-0.21054-0.24061-0.25565-0.391c-0.04512-0.15038-0.21054-0.85719-0.61657-0.94742
			c-0.40604-0.09023-0.72184-0.12031-0.75192-0.27069c-0.03008-0.15038-0.06015-0.48123-0.24062-0.66169
			s-0.37596-0.40604-0.36092-0.60154c0.01504-0.1955-0.40604-1.06773-0.82711-1.24819
			c-0.42107-0.18046-1.51888-0.16542-1.81964-0.16542c-0.30077,0-1.78957,0.69177-2.27079,1.2933
			c-0.48123,0.60153-0.61657,0.66169-0.782,0.72184c-0.16542,0.06015-0.55642,0.03008-0.48123,0.33084
			s-0.31581,0.43611,0.10527,0.75192c0.42107,0.31581,1.06772,0.34588,1.08276,0.49627
			c0.01504,0.15038,0.36092-0.09023,0.391,0.48123c0.03008,0.57146-0.34588,0.57146,0.0752,0.9023
			c0.42107,0.33084,0.72184,0.42107,0.91734,0.82711s0.48123,0.63161,0.46619,0.90231
			c-0.01504,0.27069,0.27069,0.63161,0.34588,0.81207c0.07519,0.18046,0.1955,0.52634,0.13535,0.84215
			s-0.391,0.60154-0.42107,1.03765c-0.03008,0.43612-0.07519,0.76696,0.03008,0.82711
			c0.10527,0.06015,0.30077,0.22557,0.5865,0.45115c0.28573,0.22558,0.28573,0.45115,0.12031,0.66169
			c-0.16542,0.21054-0.33084,0.57146-0.43612,0.82711c-0.10527,0.25565,0,1.02261,0,1.35345
			c0,0.33084,0.24062,2.00011,0.49627,2.33095s0.7068,1.18803,0.81207,1.39857c0.10527,0.21054,0.30077-0.28573,0.34588-0.5865
			c0.04512-0.30077,0.36092-0.69176,0.51131-0.55642c0.15038,0.13535,0.24061,0.57146,0.21054,0.97749
			c-0.03008,0.40604,0.25565,1.78957,1.02261,2.31591c0.76696,0.52634,1.41361,0.84215,1.65422,0.93238
			C42.95467,47.89383,43.37424,48.02917,43.54117,48.01413z"/>
		<path class="st1" d="M45.19539,30.88541c0,0-0.24061-0.5113,0-0.69176c0.24062-0.18046,0.34588-0.5113,0.48123-0.76696
			c0.13535-0.25565,0.28573-0.55642,0.31581-0.7068c0.03008-0.15038,0.04512-0.1955-0.21054-0.12031
			c-0.25565,0.07519-0.43779,0.04511-0.63997,0.06015c-0.20218,0.01504-0.38264,0.09023-0.54807-0.03008
			c-0.16542-0.12031-0.30077,0-0.34588-0.33084s-0.09023-0.54138-0.13535-0.66169c-0.04512-0.12031-0.22557-0.09023-0.09023-0.37596
			c0.13535-0.28573-0.06015-0.48123,0.22557-0.60154c0.28573-0.12031,1.08276-0.28573,0.91734-0.48123
			c-0.16542-0.1955,0.13535-0.06015-0.55642-0.391c-0.69176-0.33084-0.49627-0.30986-0.73688-0.37299
			c-0.24062-0.06313-0.45115,0.01207-0.49627,0.08726s-0.24061,0.1955-0.40604,0.28573
			c-0.16542,0.09023-0.24061,0.1955-0.43611,0.22558s-0.25565-0.06015-0.43612,0.18046
			c-0.18046,0.24061-0.43611,0.55642-0.61657,0.88727c-0.18046,0.33084-0.22557,0.60153-0.18046,0.60153c0.04512,0,1.564,0,1.564,0
			s-0.16542,0.57146-0.33084,0.75192c-0.16542,0.18046-0.73688,0.57146-0.67673,0.79703
			c0.06015,0.22558-0.01504,0.33084-0.01504,0.33084h1.06773c0,0,0.04512,0.06015,0.10527,0.25565s0.03008,0.33084,0.22557,0.60154
			s0.64665,0.15038,0.72184,0.16542c0.07519,0.01504,0.48123-0.04511,0.48123-0.04511s0.25565,0.22558,0.46619,0.34588
			C45.1202,31.00572,45.19539,30.88541,45.19539,30.88541z"/>
		<path class="st1" d="M46.84962,28.02812c0-0.07519,0.18046-0.49627,0.1203-0.79704
			c-0.06015-0.30077-0.36092-0.36092-0.55642-0.40604s-0.49627-0.1955-0.64665-0.21054
			c-0.15039-0.01504-0.24062-0.03008-0.15039,0.15038c0.09023,0.18046,0.25785,0.52634,0.3921,0.67673
			c0.13425,0.15038,0.1944,0.34588,0.40494,0.43611C46.62404,27.96796,46.84962,28.02812,46.84962,28.02812z"/>
		<path class="st1" d="M35.70617,26.07313c0,0,0.27069-0.5113,0.54139-0.76696c0.27069-0.25565,0.391-0.5865,0.61657-0.73688
			c0.22557-0.15038,0.52634-0.45115,0.55642-0.55642c0.03008-0.10527,0.24061-0.40604,0-0.36092
			c-0.24062,0.04511-0.42107-0.04511-0.67673,0.13535s-0.76696,0.36092-1.03765,0.54138s-0.96246,0.54138-1.0978,0.63161
			c-0.13535,0.09023-0.3158,0.1955-0.12031,0.27069c0.1955,0.07519,0.391,0.25565,0.55642,0.45115
			C35.2099,25.87763,35.70617,26.07313,35.70617,26.07313z"/>
		<path class="st1" d="M30.77358,28.87027c0.06015-0.16542,0.10527-0.34588,0.09023-0.46619
			c-0.01504-0.12031-0.10527-0.31306-0.25565-0.23924c-0.15038,0.07382-0.391,0.32947-0.42108,0.37459
			c-0.03008,0.04511-0.15038,0.22558-0.24061,0.27069c-0.09023,0.04511-0.21054,0.09023-0.22557,0.1955
			c-0.01504,0.10527,0,0.15038-0.07519,0.1955c-0.07519,0.04512,0,0.03008-0.21054,0.13535
			c-0.21054,0.10527-0.12031,0.07519-0.27069,0.18046c-0.15038,0.10527-0.13535,0.10527-0.27069,0.21054
			s-0.01504,0.04511-0.27069,0.30077s-0.5113,0.391-0.55642,0.49627c-0.04512,0.10527-0.04512-0.03008-0.15038,0.31581
			s-0.10527,0.36092-0.34588,0.61657c-0.24061,0.25565-0.45115,0.57146-0.22558,0.46619
			c0.22558-0.10527,0.34588-0.31581,0.61657-0.49627c0.27069-0.18046,0.43611-0.28573,0.57146-0.391
			s-0.03008,0.15038,0.28573-0.18046c0.31581-0.33084,0.12031-0.12031,0.31581-0.33084c0.1955-0.21054,0-0.07519,0.36092-0.36092
			s0.15038-0.10527,0.43611-0.33084c0.28573-0.22558,0.21054-0.22558,0.33084-0.30077
			c0.12031-0.07519,0.13535,0.01504,0.1955-0.12031c0.06015-0.13535-0.13535,0.10527,0.06015-0.13535
			s-0.07519-0.40604,0.09023-0.40604S30.77358,28.87027,30.77358,28.87027z"/>
		<path class="st1" d="M61.03082,37.39703c0.06015-0.07519,0.25565-0.28573,0.34588-0.37596
			c0.09023-0.09023,0.1955-0.03008,0.13535-0.1955c-0.06015-0.16542,0.09023-0.48123,0.16542-0.42108
			c0.0752,0.06015,0.42108,0.12031,0.55642,0.1955c0.13535,0.0752,0.25565,0.22558,0.1203,0.36092s-0.58649,0.52634-0.73688,0.64665
			c-0.15039,0.12031-0.42108,0.12031-0.48123,0.12031c-0.06015,0-0.42107,0.04512-0.36092-0.10527
			C60.83532,37.47222,61.03082,37.39703,61.03082,37.39703z"/>
		<path class="st1" d="M62.41353,42.49504c0.09105-0.22558,0.1512-0.33084,0.13616-0.51131
			c-0.01504-0.18046-0.01043-0.37596,0.0023-0.5113s-0.09253-0.18046-0.21284-0.13535
			c-0.12031,0.04511-0.22557,0.26881-0.30077,0.57052s-0.07519,0.76789-0.12031,0.87317s-0.15038,0.24062-0.16542,0.40604
			c-0.01504,0.16542-0.15039,0.27069-0.06015,0.37596c0.09023,0.10527,0.31844,0.15038,0.41488,0.10527
			c0.09643-0.04512,0.24517,0.07519,0.30615-0.1955C62.4745,43.20185,62.41353,42.49504,62.41353,42.49504z"/>
		<path class="st1" d="M63.40688,41.09647c-0.04512-0.03008-0.13535-0.21054-0.10527-0.33084
			c0.03008-0.12031,0.13535-0.34588,0.27069-0.54138s0.30077-0.61657,0.51131-0.57146
			c0.21053,0.04511,0.18046,0.01504,0.1955,0.27069c0.01504,0.25565-0.0752,1.36473,0,1.39669
			c0.0752,0.03196,0.10527,0.06203,0.24062,0.15226c0.13535,0.09023,0.07519,0.34588,0.28573,0.48123
			c0.21053,0.13535,0.25565,0.37596,0.25565,0.37596c0,0.16542-0.03008,0.46619-0.12031,0.63161
			c-0.09023,0.16542-0.12031,0.30077-0.18046,0.1955c-0.06016-0.10527,0.03008-0.18046-0.10527-0.21054
			c-0.13535-0.03008-0.18047-0.06015-0.27069,0c-0.09023,0.06015-0.27069,0.13535-0.40604,0.16542
			c-0.13535,0.03008-0.28573,0.16542-0.40604,0.1955c-0.12031,0.03008-0.22558-0.06015-0.10527-0.24062
			c0.12031-0.18046,0.24062-0.52634,0.25565-0.7068c0.01504-0.18046,0.06015-0.48123-0.01504-0.55642
			c-0.0752-0.0752-0.28573-0.0752-0.24062-0.24062c0.04512-0.16542,0.01504-0.42107,0.01504-0.42107L63.40688,41.09647z"/>
		<path class="st1" d="M65.94836,42.37474c-0.01504-0.87223,0.33085-1.33842,0.45116-1.51888
			c0.12031-0.18046,0.18046-0.37596,0.51131-0.46619c0.33084-0.09023,0.42107-0.13535,0.61657-0.27069
			c0.1955-0.13535,0.49627-0.46619,0.61658-0.57146c0.12031-0.10527,0.24061-0.42107,0.27069-0.46619
			c0.03008-0.04511,0.40604-0.21054,0.42107-0.61657s0.01504-0.72184,0.16542-0.97749
			c0.15038-0.25565,0.24062-0.73688,0.46619-1.02261c0.22558-0.28573,0.34589-0.79703,0.5865-1.05268
			s0.34588-0.36092,0.37596-0.45115c0.03008-0.09023-0.09023-0.76696,0-1.0978c0.09023-0.33084,0.18046-0.33084,0.24061-0.60154
			c0.06016-0.27069-0.30077-0.99253-0.36092-1.06773c-0.06016-0.07519,0.04511-0.06015-0.27069,0.25565
			c-0.31581,0.31581-0.391,0.43611-0.54138,0.73688c-0.15038,0.30077-0.30077,0.40604-0.28573,0.57146
			c0.01504,0.16542-0.27069,0.88726-0.30077,1.11284c-0.03008,0.22557-0.07519,0.21054-0.24061,0.43611
			c-0.16543,0.22558-0.04512,0.22558-0.21054,0.45115s-0.18046,0.31581-0.25565,0.40604
			c-0.07519,0.09023,0.04511,0.06017-0.12031,0.2331s-0.30077,0.31786-0.30077,0.31786l-0.15038,0.18592
			c0,0-0.06016,0.27816-0.09023,0.36465s0.12031,0.2068-0.01504,0.34215s-0.07519-0.01504-0.22558,0.31581
			c-0.15038,0.33084,0.03008,0.73688-0.09023,0.91734c-0.12031,0.18046-0.21054,0.42107-0.21054,0.1203
			c0-0.30077-0.04511-0.33084-0.12031-0.45115c-0.07519-0.12031-0.24062-0.12031-0.28573-0.18046s-0.06015-0.09023-0.18046-0.09023
			s-0.37596,0.1955-0.37596,0.1955s-0.36092,0.49627-0.43611,0.49627c-0.0752,0-0.03008-0.1955,0-0.5865
			s0.28573-0.93238,0.30077-1.00757s-0.09023-0.37596,0.06015-0.55642c0.15039-0.18046,0.31581-0.31581,0.391-0.61657
			c0.0752-0.30077,0.24062-0.42107,0.34589-0.64665c0.10527-0.22557,0.27069-0.15038,0.1955-0.37596
			c-0.07519-0.22558-0.09023-1.15796,0.04512-1.33842s0.10527-0.34588,0.30077-0.51131
			c0.1955-0.16542,0.01504-0.18046,0.30077-0.1955c0.28573-0.01504,0.62727-0.18046,0.57681-0.43611
			c-0.05047-0.25565-0.29108-0.36092-0.17078-0.57146c0.12031-0.21054,0.30077-0.391,0.37596-0.63161
			s-0.04511-0.84215,0.16542-1.0978c0.21054-0.25565,0.1955-0.82711,0.28573-0.9775c0.09023-0.15038-0.13535-0.69177,0-0.96246
			s-0.10526-0.99253,0.16543-0.87223c0.27069,0.12031,1.06772,1.02261,1.38353,1.27826
			c0.3158,0.25565,0.9023,0.96246,1.20307,1.21811c0.30077,0.25565,0.94742,0.64665,0.76695,0.94742
			c-0.18046,0.30077-0.42107,0.391-0.58649,0.55642s-0.21054,0.15038-0.24062,0.391c-0.03008,0.24061,0.12031,0.60153,0.06016,0.782
			c-0.06016,0.18046-0.04512,0.391-0.10527,0.42107c-0.06016,0.03008-0.13535,0.40604-0.06016,0.40604
			c0.0752,0,0.25565,0.15038,0.49627-0.07519s0.1955-0.03008,0.34589-0.34588s0.12031-0.22557,0.22557-0.57146
			c0.10527-0.34588,0.31581-0.87222,0.40604-0.88726c0.09023-0.01504,0.48123,0.27069,0.49627,0.49627
			c0.01504,0.22557-0.07519,0.16542,0.28573,0.46619c0.36092,0.30077,0.66169,0.99253,0.81207,1.23315
			c0.15038,0.24061,0.87223,1.32338,1.23315,1.78957c0.36092,0.46619,0.84216,1.14175,0.79704,1.41302
			c-0.04511,0.27127-0.1144,0.7525,0.00295,0.85777c0.11736,0.10527,0.56851,0.82711,0.67377,1.0978
			c0.10527,0.27069,0.52634,1.11284,0.5865,1.2933c0.06015,0.18046,0.27069,1.21811,0.45115,1.53392
			c0.18046,0.31581,0.27069,0.60154,0.27069,0.76696c0,0.16542-0.12031,0.06015,0,0.28573
			c0.12031,0.22557,0.04511,0.75192,0.16542,0.93238c0.12031,0.18046,0.04512,0.30077,0.0752,0.48123
			c0.03008,0.18046,0.10527,0.46619,0.22557,0.61657c0.12031,0.15038,0.16543,0.22557,0.15039,0.48123
			c-0.01505,0.25565-0.0752,0.75192,0.07519,0.93238s0.18046,0.391,0.16542,0.61657s-0.07519,0.76696-0.16542,0.61657
			s-0.1955-0.42107-0.45115-0.61657s-0.27069-0.1955-0.46619-0.25565c-0.1955-0.06015-0.84215,0.06015-0.84215,0.06015
			s0.06016,0.68361,0.03008,0.83807c-0.03008,0.15446-0.07519,0.26204,0.13535,0.41127
			c0.21054,0.14923,0.24062,0.17931,0.27069,0.40488c0.03008,0.22557,0.03008,0.22557,0.12031,0.34588
			c0.09023,0.12031,0.391,0.28573,0.76696,0.28573s0.7739,0.30077,0.605,1.00757c-0.16889,0.7068,0.22211,2.31591-0.45462,5.62436
			s-2.04522,6.81239-3.03776,8.52676c-0.99253,1.71438-1.32337,2.34599-1.6091,2.30087
			c-0.28574-0.04511-0.55643-0.1955-0.54138-0.66169c0.01504-0.46619,0.01504-0.84215,0.1203-1.12788
			c0.10527-0.28573,0.0752-0.49627,0.1955-0.85719c0.12031-0.36092-0.04511-0.85719,0.09023-1.09781
			c0.13535-0.24061,0.33084-0.94742,0.34588-1.39857c0.01504-0.45115-0.04511-1.41361-0.03008-1.6843
			s-0.10527-0.45115,0.12031-0.63161c0.22557-0.18046,0.64665-0.64665,0.73688-1.03765
			c0.09023-0.391-0.16542-0.54138-0.27069-0.66169s-0.63161,0-0.79704,0.15038c-0.16542,0.15038-0.64664,0.61657-0.94742,0.79704
			c-0.30077,0.18046-0.58649,0.76696-1.77453,0.49627s-1.38353-0.1203-1.8798-0.36092
			c-0.49626-0.24062-0.72184-0.33084-0.93238-0.52634c-0.21053-0.1955-0.01504-0.15038-0.5113-0.33084
			c-0.49627-0.18046-0.60154-0.07519-1.20307-0.49627c-0.60154-0.42107-1.66927-0.9775-1.81965-1.0978
			c-0.15038-0.12031-0.63161-0.64665-0.69176-0.72184s-0.04511-0.12031-0.25565-0.33084
			c-0.21054-0.21054-0.22557-0.13535-0.3158-0.37596c-0.09023-0.24062,0.28573-0.45115-0.0752-1.03765
			c-0.36092-0.5865-0.43611-0.87223-0.33084-1.00757c0.10527-0.13535,0.21054-0.21054,0.06015-0.45115
			c-0.15038-0.24062-0.30077-0.01504-0.13535-0.40604c0.16542-0.391,0.12031-0.70681,0.22558-0.88727
			c0.10527-0.18046-0.06015-0.01504,0.15038-0.36092s0.16542-0.27069,0.24062-0.48123
			c0.07519-0.21054-0.02105-0.18046,0.20001-0.51131c0.22106-0.33084,0.32633-0.391,0.44664-0.55642
			c0.1203-0.16542,1.21811-0.82711,1.81964-0.93238c0.60154-0.10527,1.03765-0.3158,1.12788-0.37596
			c0.09023-0.06015,0.36092-0.12031,0.54138-0.07519c0.18047,0.04511,0.67673-0.06015,1.27827-0.01504
			c0.60153,0.04512,0.97749,0.15039,1.32338-0.07519c0.34588-0.22557,0.72184-0.07519,1.17299-0.63161
			c0.45116-0.55642,0.1955-0.99253,0.48123-0.99253s0.52634,0.13535,0.96246,0.28573
			c0.43611,0.15039,0.27069,0.36092,1.03765,0.33084c0.76695-0.03008,1.20307,0.06015,1.15795-0.24061
			c-0.04511-0.30077,0.09023-0.34588-0.04511-0.40604s-0.3158,0.01504-0.3158-0.24062s-0.01504-0.84215,0.06015-0.94742
			c0.0752-0.10527,0.21054-0.01504,0.1955-0.33084c-0.01505-0.3158-0.09023-0.47646,0.04511-0.52396s0.13535-0.0475,0.13535-0.0475
			s-0.12031-0.06015-0.18046-0.25565c-0.06016-0.1955,0.01504-0.61657-0.22558-0.55642s-0.34589,0.06015-0.46619,0.18046
			c-0.1203,0.12031-0.04511,0.04512-0.27069,0.21054c-0.22557,0.16542-0.3158,0.1955-0.54138,0.391
			c-0.22557,0.1955-0.01504,0.49627-0.46619,0.5865s-0.72184,0.28573-0.61658,0c0.10527-0.28573,0.03008-0.51131,0.16543-0.63161
			c0.13535-0.12031,0.25565-0.30077,0.46619-0.51131c0.21054-0.21054,0.27069-0.24062,0.27069-0.43611
			c0-0.1955-0.12031-0.25565-0.16542-0.24062s-0.25565-0.10527-0.1955-0.10527c0.06016,0,0.45116,0,0.51131-0.24061
			c0.06016-0.24062-0.12031-0.09023,0.06016-0.24062c0.18046-0.15038,0.34588-0.43611,0.49626-0.58649
			c0.15038-0.15039,0-0.12031,0.1955-0.27069c0.1955-0.15039,0.01504-0.24062,0.3158-0.36092s0.55642-0.06015,0.54138-0.36092
			c-0.01504-0.30077,0.10527-0.85719,0.0752-0.99253c-0.03008-0.13535-0.24062,0.01504-0.28573-0.16542
			c-0.04512-0.18046-0.31581-0.28573-0.37596-0.24062c-0.06016,0.04512,0.01504,0.15038-0.22558,0.13535
			s-0.30077-0.04512-0.60153-0.01504c-0.30077,0.03008-0.82711,0-0.87223,0.09023c-0.04511,0.09023-0.18046,0.04512-0.16542,0.27069
			c0.01504,0.22558-0.24062,0.25565-0.04511,0.60154c0.1955,0.34588,0.24061,0.36092,0.25565,0.82711
			c0.01504,0.46619,0.07519,0.76696,0.03008,1.02261c-0.04512,0.25565,0.25565,0.391-0.21054,0.54138
			c-0.46619,0.15038-0.48122,0.15088-0.64665,0.21831c-0.16542,0.06742-0.13535,0.18773-0.22557,0.26292
			c-0.09023,0.07519-0.01504,0.15038-0.25565,0.3158c-0.24062,0.16542-0.27069,0.02644-0.36092,0.23128
			s-0.40604,0.34018-0.55642,0.21988s-0.21054-0.18046-0.3158-0.30077c-0.10527-0.12031-0.01504,0-0.15038-0.30077
			c-0.13535-0.30077-0.06016-0.33084-0.1955-0.34588s-0.24062-0.15038-0.28573,0.07519
			c-0.04511,0.22558-0.24062,0.69176-0.03008,0.88726c0.21053,0.1955,0.34588,0.01504,0.30077,0.31581
			c-0.04511,0.30077,0.09023,0.51131-0.18046,0.49627c-0.27069-0.01504-0.24062,0.09023-0.48123-0.01504
			c-0.24062-0.10527,0.01504,0.18046-0.24062-0.10527c-0.25565-0.28573-0.13535-0.42108-0.37595-0.37596
			c-0.24062,0.04512-0.34589,0.18046-0.46619,0.25565s-0.16542,0.07519-0.16542,0.33084s-0.1955,0.63161-0.30077,0.58649
			c-0.10527-0.04511-0.31581-0.37596-0.391-0.25565c-0.0752,0.1203-0.5865,0.57146-0.63161,0.82711
			s-0.30077,0.60154-0.37596,0.72184c-0.07519,0.1203,0.12031,0.10527-0.13535,0.28573s-0.1955,0.25953-0.52634,0.40797
			c-0.33084,0.14845-0.46619,0.00193-0.55642,0c-0.09023-0.00194-0.22557-0.24255-0.33084-0.36286
			c-0.10527-0.12031-0.18047-0.25565-0.13535-0.37596c0.04511-0.12031,0.10527-0.16542,0.13535-0.36092
			c0.03008-0.1955,0.09023-0.45115,0.12031-0.64665c0.03008-0.1955,0.03008-0.24062,0.15038-0.43611
			c0.12031-0.1955,0.55642-0.72184,0.57146-0.88727c0.01504-0.16542,0.0752-0.25565-0.01504-0.33084
			C65.93333,43.54773,65.94836,42.37474,65.94836,42.37474z"/>
		<path class="st1" d="M54.81996,61.3983c0.37596,0,0.67673-0.24062,0.66169-0.49627
			c-0.01504-0.25565-0.13535-0.30077,0.01504-0.55642c0.15038-0.25565,0.31581-0.36092,0.391-0.45115
			c0.07519-0.09023,0.15038-0.09023,0.28573-0.34588c0.13535-0.25565-0.06015-0.13535,0.16542-0.37596
			c0.22558-0.24062,0.34588-0.54138,0.51131-0.61657c0.16542-0.07519,0.54138-0.43612,0.5865-0.57146
			c0.04511-0.13535,0.18046-0.55642,0-0.73688c-0.18046-0.18046-0.57146-0.34588-0.70681-0.37596
			c-0.13535-0.03008-0.27069-0.04512-0.67673-0.33084s-0.42107-0.28573-0.7068-0.52634
			c-0.28573-0.24061-0.01504-0.30077-0.42108-0.391c-0.40604-0.09023-0.48123-0.09023-0.57146-0.18046
			c-0.09023-0.09023-0.22557-0.42108-0.33084-0.5865s-0.25565-0.31581-0.48123-0.34588
			c-0.22557-0.03008-0.60154-0.18046-0.73688-0.33084s-0.25565-0.30077-0.30077-0.55642
			c-0.04511-0.25565-0.06015-0.25565-0.27069-0.42108c-0.21054-0.16542-0.37596-0.22557-0.55642-0.37596
			c-0.18046-0.15038-0.34588-0.15038-0.55642-0.22557c-0.21054-0.0752-0.36092-0.13535-0.55642-0.22558
			c-0.1955-0.09023-1.173-0.76696-1.33842-0.94742c-0.16542-0.18046-0.28573-0.5865-0.64665-0.48123
			c-0.36092,0.10527-0.43611,0.40604-0.76696,0.36092c-0.33084-0.04511-1.00757-0.18046-0.94742-0.06015
			c0.06015,0.1203,0.43611,0.3158,0.40604,0.60153c-0.03008,0.28573-0.48123,0.76696-0.60154,0.90231
			s-0.24062,0.45115-0.45115,0.66169c-0.21054,0.21054-0.01504,0.13535-0.391,0.391
			c-0.37596,0.25565-0.18046,0.03008-0.48123,0.46619c-0.30077,0.43612-0.46619,0.49627-0.54138,0.57146
			s-0.07519,0.21054-0.16542,0.45115c-0.09023,0.24062-0.07519,0.33084-0.16542,0.54138
			c-0.09023,0.21054-0.10527,0.54139-0.1203,0.782c-0.01504,0.24062,0.25565,0.96246,0.43611,1.18803
			c0.18046,0.22557,0.21054,0.5113,0.40604,0.64665s0.27069,0.18046,0.31581,0.1955
			c0.04511,0.01504,0.52634,0.07519,0.61657,0.36092c0.09023,0.28573,0.28573,0.60153,0.30077,0.79703
			c0.01504,0.1955,0.0752,0.15039,0.21054,0.28573s0.1955,0.1955,0.34588,0.27069c0.15038,0.07519,0.18046-0.01504,0.34588,0.18046
			c0.16542,0.1955,0.27069,0.33084,0.30077,0.5865c0.03008,0.25565-0.09023,0.31581-0.18046,0.46619
			c-0.09023,0.15038-0.1955,1.72941-0.15039,2.13545c0.04512,0.40604-0.16542,0.63161-0.33084,0.91734
			c-0.16542,0.28573-0.37596,0.28573-0.46619,0.43611c-0.09023,0.15038-0.06015,0.1955-0.09023,0.36092
			c-0.03008,0.16543,0.21054,1.05269,0.06015,1.35345c-0.15038,0.30077-0.12031,0.16543-0.22557,0.51131
			c-0.10527,0.34589-0.06015,0.43612-0.10527,0.67673c-0.04511,0.24062-0.13535,0.42107-0.13535,0.5865
			c0,0.16542,0.12031,0.24061,0.13535,0.93238c0.01504,0.69176-0.15038,1.00757-0.21054,1.20306
			c-0.06015,0.1955-0.10527,0.48123-0.13535,0.63161s-0.24062,0.51131,0.10527,0.40604
			c0.34588-0.10527,0.48123-0.391,0.79703-0.52634c0.31581-0.13535,0.49627,0.04512,0.75192-0.21053
			c0.25565-0.25565,0.13535-0.1955,0.43611-0.36092s0.15038-0.01504,0.33084-0.391s0.25565-0.36092,0.22557-0.61657
			c-0.03008-0.25565-0.13535-0.18047-0.06015-0.43612c0.0752-0.25565-0.03008-0.46619,0.12031-0.79704
			c0.15038-0.33084,0.22558-0.46619,0.28573-0.58649c0.06015-0.12031-0.01504-0.21053,0.42108-0.55642
			c0.43611-0.34589,0.54138-0.30077,0.61657-0.61658c0.07519-0.3158-0.18046-1.4888,0.07519-1.72941
			c0.25565-0.24062,0.24061-0.391,0.5113-0.64665s0.2861-0.391,0.52653-0.391s0.466-0.13535,0.76677-0.1955
			c0.30077-0.06015,0.43611-0.1955,0.61657-0.36092c0.18046-0.16542,0.18046-0.27069,0.30077-0.43611
			s-0.01504,0.01504,0.18046-0.27069s0.07519-0.24062,0.22557-0.391s0.07519-0.15038,0.37596-0.36092
			c0.30077-0.21054,0.57146-0.46619,0.85719-0.43612C54.54927,61.45845,54.81996,61.3983,54.81996,61.3983z"/>
	</g>
	<g>
		<path class="st2" d="M3.00554,41.347c-0.97072-0.10032-1.86157,0.12754-2.03754,1.24419
			c-0.24677,1.56581,1.44073,2.04217,3.55841,2.3759c2.11772,0.33369,3.8699,0.39938,4.11667-1.16643
			c0.24672-1.56586-1.6089-1.97665-2.8282-2.16879L5.5297,43.44155l-0.92407-0.14561l0.44697-2.83644l4.76163,0.75035
			l-0.1335,0.8471l-1.24494-0.19619l-0.00405,0.02569c0.74449,0.36722,1.27094,1.19991,1.11316,2.20099
			c-0.37617,2.38723-2.74031,2.44873-5.20455,2.06041c-2.31021-0.36405-4.69488-1.17387-4.29647-3.70231
			c0.41463-2.63108,2.67078-2.34132,3.14771-2.27928L3.00554,41.347z"/>
		<path class="st2" d="M2.04446,34.89249l0.49323-1.45179l9.58702,0.62231l-0.38458,1.13189l-2.62461-0.19183L8.1625,37.80819
			l2.18985,1.47136l-0.38454,1.13189L2.04446,34.89249z M7.35193,37.2858l0.80256-2.3622l-4.62497-0.3225l-0.00837,0.02458
			L7.35193,37.2858z"/>
		<path class="st2" d="M4.43231,28.5669l0.96156-1.66538l7.29808,2.06825l0.013-0.02251l-5.4399-5.28649l0.96161-1.66538
			l8.03438,4.63893l-0.57174,0.99024l-7.02166-4.0542l-0.013,0.02247l5.99512,5.83215l-0.57178,0.99024L6.0298,28.13892
			l-0.013,0.02247l7.02162,4.05424l-0.57174,0.99024L4.43231,28.5669z"/>
		<path class="st2" d="M10.26511,19.44055l0.71382-0.89318l7.24698,5.79206l-0.71387,0.89318L10.26511,19.44055z"/>
		<path class="st2" d="M12.93629,16.17825l1.06492-1.02963l7.58763,3.43607l0.01868-0.01806l-5.38298-5.56758l0.82207-0.7948
			l6.44874,6.66991L22.36501,19.967l-7.35963-3.33117l-0.01868,0.01806l5.22041,5.39946l-0.82207,0.7948L12.93629,16.17825z"/>
		<path class="st2" d="M24.81418,9.73929c-0.58588-0.7804-1.35843-1.27922-2.29726-0.64963
			c-1.31658,0.88283-0.51953,2.44468,0.67448,4.22523c1.19401,1.78059,2.33638,3.11087,3.65292,2.228
			c1.31653-0.88283,0.35713-2.52354-0.3303-3.54872l-1.52162,1.02038l-0.52103-0.777l2.38494-1.59925l2.68471,4.00362
			l-0.71219,0.47759l-0.70197-1.04677l-0.02159,0.01449c0.23641,0.79577-0.01687,1.74782-0.8586,2.31224
			c-2.00723,1.34601-3.65865-0.34687-5.04805-2.41882c-1.30257-1.94242-2.32863-4.24241-0.20271-5.66799
			c2.21223-1.48347,3.53255,0.36885,3.81108,0.76088L24.81418,9.73929z"/>
		<path class="st2" d="M31.18035,3.61288l1.07748-0.38273l2.76617,7.78712l3.55075-1.26129l0.33924,0.95504l-4.62818,1.64402
			L31.18035,3.61288z"/>
		<path class="st2" d="M40.14756,0.97439l1.50735-0.28043l4.14932,8.6644l-1.1752,0.21862l-1.11726-2.38251l-2.91244,0.54182
			l-0.21125,2.62963l-1.17524,0.21861L40.14756,0.97439z M40.65815,6.77376l2.45261-0.45626l-1.98229-4.19078l-0.02555,0.00476
			L40.65815,6.77376z"/>
		<path class="st2" d="M46.60207,0.04918l2.84516-0.04886c1.20819-0.02075,2.38727,0.53081,2.41824,2.33665
			c0.0145,0.84446-0.47768,1.69759-1.31786,1.95894l0.00044,0.02595c1.14793,0.2532,1.66953,1.11493,1.68917,2.25818
			c0.03234,1.88378-1.0198,2.66858-2.95552,2.7018L46.76134,9.3251L46.60207,0.04918z M47.81401,4.03095l1.31217-0.02256
			c0.48067-0.00824,1.56995-0.14389,1.54541-1.57295c-0.01648-0.96138-0.5068-1.51175-1.62406-1.49259l-1.28613,0.02207
			L47.81401,4.03095z M47.88852,8.37011l1.55898-0.02679c1.20824-0.02071,1.60992-0.84635,1.59449-1.74275
			c-0.02185-1.27318-0.84877-1.75279-1.84915-1.73561l-1.36407,0.02339L47.88852,8.37011z"/>
		<path class="st2" d="M60.28012,5.67047c-0.36603,2.30999-1.17797,4.694-3.7061,4.29339
			c-2.52812-0.40057-2.56324-2.91883-2.1972-5.22882s1.17797-4.694,3.7061-4.29339
			C60.61103,0.84222,60.64615,3.36047,60.28012,5.67047z M55.55748,4.9221c-0.33554,2.1175-0.40269,3.86968,1.16295,4.11777
			c1.56568,0.24809,2.04349-1.43902,2.37903-3.55648c0.33554-2.1175,0.40269-3.86968-1.16295-4.11777
			C56.37083,1.11754,55.89302,2.80464,55.55748,4.9221z"/>
		<path class="st2" d="M64.19611,1.92212l2.83533,0.98434c1.37469,0.47723,1.96494,1.58991,1.48343,2.9769
			c-0.33237,0.95738-1.0132,1.8488-2.1172,1.74059l-0.0085,0.02458c0.73114,0.35008,0.94345,1.12524,0.73259,1.891l-0.44621,1.52303
			c-0.28752,0.98667-0.2132,1.28759-0.01084,1.5366l-1.30107-0.45168c-0.12019-0.248,0.01974-0.92838,0.14433-1.3665l0.39935-1.388
			c0.33167-1.23274-0.30554-1.53647-0.85789-1.72821l-1.46065-0.5071l-1.35504,3.90321l-1.08017-0.37498L64.19611,1.92212z
			 M63.89558,6.27393l1.06787,0.37075c0.63827,0.22157,1.8043,0.62641,2.39234-1.06743
			c0.29827-0.85921-0.09111-1.59956-1.09761-1.94898l-1.28878-0.44741L63.89558,6.27393z"/>
		<path class="st2" d="M73.80435,5.89027l1.34372,0.73836l-2.28149,9.33219l-1.04765-0.5757l0.64571-2.55108l-2.59637-1.42677
			l-1.83003,1.90034l-1.04765-0.5757L73.80435,5.89027z M70.52381,10.70002l2.18642,1.20146l1.12259-4.49812l-0.02278-0.01251
			L70.52381,10.70002z"/>
		<path class="st2" d="M75.31664,17.87663l-0.91362-0.6873l4.96755-6.60329l-1.85849-1.39809l0.60924-0.80983l4.64095,3.49131
			l-0.60923,0.80987l-1.86884-1.40593L75.31664,17.87663z"/>
		<path class="st2" d="M85.43596,21.10408c-1.6964,1.60987-3.79156,3.00712-5.55348,1.15057
			c-1.76192-1.85659-0.25703-3.87585,1.43937-5.48572c1.69636-1.60987,3.79152-3.00712,5.55344-1.15052
			C88.6372,17.47495,87.13232,19.49421,85.43596,21.10408z M82.14467,17.63599c-1.55502,1.47572-2.67475,2.82494-1.58361,3.97472
			c1.09113,1.14973,2.49706,0.10208,4.05208-1.37363c1.55498-1.47571,2.67475-2.82498,1.58361-3.97472
			C85.10561,15.11258,83.69965,16.16027,82.14467,17.63599z"/>
		<path class="st2" d="M90.81938,20.50128l1.65508,2.50393c0.80247,1.21401,0.59575,2.45653-0.6291,3.26614
			c-0.84551,0.55887-1.92779,0.85375-2.73929,0.09732l-0.02168,0.01436c0.36837,0.7222,0.06631,1.46699-0.56623,1.9474
			l-1.27943,0.93918c-0.82767,0.60936-0.95134,0.89358-0.94178,1.21437L85.53747,29.335
			c0.05511-0.27007,0.57945-0.72572,0.94451-0.99817l1.16022-0.86032c1.01209-0.77806,0.69025-1.40637,0.36784-1.89413
			l-0.85265-1.28992L83.7104,26.5709l-0.63052-0.95389L90.81938,20.50128z M87.93783,23.77658l0.62337,0.94306
			c0.37256,0.56363,1.05325,1.59339,2.5491,0.60465c0.75877-0.50155,0.89896-1.32627,0.31145-2.21509l-0.75233-1.13819
			L87.93783,23.77658z"/>
		<path class="st2" d="M95.11241,27.56366l0.50838,1.02417l-8.30965,4.12482l-0.50838-1.02417L95.11241,27.56366z"/>
		<path class="st2" d="M96.87856,31.29072l1.6227,4.51138l-0.95364,0.34303l-1.23569-3.43554l-2.73863,0.98504l1.16533,3.23992
			L93.785,37.27756l-1.16533-3.23988l-3.12986,1.12576l1.28847,3.58221l-0.95363,0.34303l-1.67548-4.65814L96.87856,31.29072z"/>
		<path class="st2" d="M97.65009,43.02595c0.95786-0.17936,1.5574-0.64853,1.3565-1.72134
			c-0.17698-0.94504-0.79304-1.41135-1.76363-1.22956c-2.56702,0.48067-0.22853,4.49759-3.56185,5.1218
			c-2.10724,0.39458-2.99685-1.03835-3.23842-2.32823c-0.39938-2.13279,0.58178-2.96425,2.52301-3.32777l0.21042,1.12387
			c-1.0217,0.19135-2.10803,0.46085-1.79954,2.10834c0.16742,0.89398,0.93513,1.46404,1.90572,1.2823
			c2.5798-0.48309,0.27964-4.5072,3.62569-5.13374c0.84291-0.15786,2.58289-0.11354,3.01575,2.19804
			c0.32523,1.73689-0.39494,2.69131-2.06319,3.03016L97.65009,43.02595z"/>
	</g>
	<g>
		<path class="st2" d="M12.86659,63.89383l0.37255,1.08232l-8.78146,3.0228l-0.3726-1.08224L12.86659,63.89383z"/>
		<path class="st2" d="M14.46188,68.20735l0.72171,1.29547l-5.27905,6.45499l0.01269,0.02274l6.773-3.77302l0.55711,1.00002
			l-8.11403,4.51997l-0.76599-1.37505l5.11881-6.2614l-0.01269-0.02274l-6.56849,3.659l-0.55707-1.00002L14.46188,68.20735z"/>
		<path class="st2" d="M14.11603,84.13776l-0.757-0.85868l6.20571-5.47101l-1.53982-1.74663l0.7611-0.67091l3.84519,4.36155
			l-0.76105,0.671l-1.54841-1.75641L14.11603,84.13776z"/>
		<path class="st2" d="M24.66928,81.55668l3.82505,2.89935l-0.61289,0.80855l-2.91284-2.20791l-1.76006,2.32193l2.74696,2.08226
			l-0.61289,0.80855l-2.74696-2.08226l-2.0115,2.65369l3.03721,2.3022l-0.61289,0.80855l-3.94943-2.99364L24.66928,81.55668z"/>
		<path class="st2" d="M31.09818,86.04185l2.7196,1.27759c1.31856,0.61945,1.78945,1.78918,1.16445,3.11947
			c-0.43137,0.91834-1.20273,1.73438-2.29052,1.51083l-0.01106,0.02353c0.69122,0.42533,0.82119,1.21935,0.53094,1.9596
			l-0.60412,1.46951c-0.38982,0.95217-0.34739,1.25952-0.17204,1.52872l-1.24794-0.58624
			c-0.09367-0.25959,0.11706-0.92222,0.28708-1.34535l0.54328-1.33997c0.45956-1.19247-0.14297-1.56176-0.67276-1.81068
			l-1.40099-0.65813l-1.75874,3.74385l-1.03602-0.48675L31.09818,86.04185z M30.34229,90.34303l1.02426,0.4812
			c0.61223,0.28761,1.73063,0.81295,2.49389-0.81172c0.38713-0.82406,0.07714-1.60203-0.88825-2.05556l-1.23617-0.58068
			L30.34229,90.34303z"/>
		<path class="st2" d="M38.93998,89.34856l1.44902,0.31492l1.35363,8.22735l0.02542,0.00547l1.64609-7.57556l1.11854,0.24311
			l-1.97198,9.07537l-1.53797-0.33413l-1.31442-7.97931l-0.02542-0.00546l-1.59635,7.34673L36.968,98.42402L38.93998,89.34856z"/>
		<path class="st2" d="M49.60743,90.86009l1.53462-0.02485l2.64743,9.24535l-1.19648,0.01938l-0.70457-2.53834l-2.96518,0.04802
			l-0.648,2.5602l-1.19652,0.01939L49.60743,90.86009z M49.14218,96.66946l2.49702-0.04044l-1.25618-4.46764l-0.02599,0.00044
			L49.14218,96.66946z"/>
		<path class="st2" d="M60.056,99.1152l-1.12312,0.22082l-1.59634-8.1172l-2.28457,0.44922l-0.19575-0.99545l5.70504-1.12197
			l0.19579,0.99553l-2.29735,0.45177L60.056,99.1152z"/>
		<path class="st2" d="M63.25371,88.59138l1.07249-0.40022l3.24697,8.70185l-1.07249,0.40022L63.25371,88.59138z"/>
		<path class="st2" d="M74.92774,87.90611c1.19132,2.01582,2.08582,4.37317-0.12037,5.67702
			c-2.20619,1.30376-3.83985-0.61681-5.03114-2.63263c-1.19128-2.01582-2.08582-4.37318,0.12037-5.67702
			C72.1028,83.96973,73.73647,85.89029,74.92774,87.90611z M70.80653,90.34162c1.09201,1.84787,2.15808,3.24257,3.52431,2.43517
			c1.36627-0.8074,0.65862-2.41393-0.4334-4.2618c-1.09201-1.84778-2.15808-3.24256-3.52431-2.43516
			C69.00686,86.88723,69.71452,88.49384,70.80653,90.34162z"/>
		<path class="st2" d="M75.05872,82.00087l1.07294-1.02364l7.57301,3.49026l0.01881-0.01789l-5.35179-5.60952l0.82825-0.79014
			l6.41138,6.72005l-1.13881,1.08646l-7.34549-3.38373l-0.01881,0.01798l5.19014,5.44007l-0.82824,0.79014L75.05872,82.00087z"/>
		<path class="st2" d="M82.30627,73.98623l0.85339-1.27583l9.10842,3.08801l-0.66536,0.99465l-2.48804-0.86609l-1.64895,2.46512
			l1.73583,1.99062l-0.66536,0.99474L82.30627,73.98623z M86.81744,77.67677l1.38861-2.07591l-4.38828-1.51127l-0.01445,0.02168
			L86.81744,77.67677z"/>
		<path class="st2" d="M85.60933,68.37028l0.43022-1.06074l7.66632,3.10942l1.41782-3.49563l0.94019,0.38136l-1.84805,4.55637
			L85.60933,68.37028z"/>
	</g>
</g>
</svg>
