<?xml version="1.0" encoding="utf-8"?>
<!-- Generator: Adobe Illustrator 26.5.1, SVG Export Plug-In . SVG Version: 6.00 Build 0)  -->
<svg version="1.1" id="Layer_1" xmlns="http://www.w3.org/2000/svg" xmlns:xlink="http://www.w3.org/1999/xlink" x="0px" y="0px" viewBox="0 0 163.91489 90" style="enable-background:new 0 0 163.91489 90;" xml:space="preserve" class="hc01X44e1PFa6ec0" >
<style type="text/css">.hc01X44e1PFa6ec0 .st0{fill:#252C57;} .hc01X44e1PFa6ec0 .st1{fill:#1385C8;} </style>
<g>
	<g>
		<g>
			<polygon class="st0" points="61.94995,15.01332 86.2074,15.01332 86.2074,22.36544 69.91544,22.36544 69.91544,29.71817 
				84.98067,29.71817 84.98067,37.07352 69.91544,37.07352 69.91544,51.16735 61.94995,51.16735 			"/>
			<path class="st0" d="M91.92558,15.01332h13.42928c1.87247,0,3.64369,0.16986,5.31071,0.50849
				c1.66871,0.3423,3.12423,0.92944,4.36762,1.76324c1.24332,0.83434,2.22814,1.95741,2.96034,3.36996
				c0.73222,1.41225,1.09739,3.19152,1.09739,5.3375c0,2.11084-0.33839,3.88113-1.01999,5.31041
				c-0.68096,1.42928-1.61868,2.57045-2.80901,3.42242c-1.19035,0.84953-2.6059,1.45398-4.23718,1.81265
				c-1.63474,0.35623-3.40479,0.53558-5.31188,0.53558h-5.8219V51.1674h-7.96538V15.01332z M99.891,30.33269h5.31308
				c0.71317,0,1.40189-0.06705,2.06613-0.20406c0.66491-0.13641,1.25948-0.36611,1.78915-0.68901
				c0.52545-0.3226,0.95023-0.76672,1.27554-1.3274c0.3229-0.56297,0.48556-1.2678,0.48556-2.11973
				c0-0.92079-0.21452-1.66042-0.64043-2.22041c-0.4248-0.56363-0.96873-0.99733-1.63303-1.30444
				c-0.6637-0.30503-1.40302-0.50074-2.22164-0.58713c-0.8162-0.08401-1.60082-0.12719-2.34789-0.12719h-4.08643v8.57936
				C99.89103,30.33269,99.891,30.33269,99.891,30.33269z"/>
			<polygon class="st0" points="133.08379,32.27224 121.13386,15.01332 131.14217,15.01332 138.85266,27.67555 146.25809,15.01332 
				155.9102,15.01332 144.21576,32.12001 157.28877,51.16859 147.27863,51.16859 138.44696,36.61298 129.86662,51.16859 
				120.41953,51.16859 			"/>
			<path class="st1" d="M27.06131,44.38395l-5.04229-6.82607c-0.74831-1.01486-2.04112-2.35268-2.04112-3.69286
				c0-1.33692,1.28597-2.67472,2.04112-3.6935l5.04229-6.83228c0.24103-0.3289,0.47037-0.55884,0.69528-0.74533v-7.86239
				c0-6.31575-2.64283-7.90913-5.87099-3.53738L11.01245,25.91355c-1.61571,2.18856-4.38633,5.06796-4.38633,7.95143
				c0,2.87934,2.77777,5.76022,4.38633,7.96249l10.87314,14.70181c3.22819,4.37536,5.87099,2.79656,5.87099-3.53229v-7.86447
				C27.53168,44.9505,27.30234,44.71817,27.06131,44.38395"/>
			<path class="st0" d="M48.42238,25.91237l-10.877-14.71823c-3.22692-4.37413-5.86858-2.78015-5.86858,3.53738v7.86239
				c0.21834,0.18082,0.45066,0.41643,0.68901,0.74533l5.05033,6.83228c0.75183,1.01875,2.03958,2.35658,2.03958,3.6935
				c0,1.33782-1.28774,2.67803-2.03958,3.6941l-5.05033,6.82484c-0.23835,0.33778-0.47067,0.56658-0.68901,0.75277v7.86031
				c0,6.33123,2.64166,7.90406,5.86861,3.53229l10.877-14.70335c1.61486-2.20224,4.38519-5.0867,4.38519-7.96451
				C52.80757,30.98151,50.03724,28.1021,48.42238,25.91237"/>
		</g>
	</g>
	<g>
		<path class="st0" d="M8.5752,72.51562c0-0.875,0.13086-1.60938,0.39258-2.20312c0.19531-0.4375,0.46191-0.83008,0.7998-1.17773
			s0.70801-0.60547,1.11035-0.77344c0.53516-0.22656,1.15234-0.33984,1.85156-0.33984c1.26562,0,2.27832,0.39258,3.03809,1.17773
			s1.13965,1.87695,1.13965,3.27539c0,1.38672-0.37695,2.47168-1.13086,3.25488s-1.76172,1.1748-3.02344,1.1748
			c-1.27734,0-2.29297-0.38965-3.04688-1.16895S8.5752,73.88281,8.5752,72.51562z M10.3623,72.45703
			c0,0.97266,0.22461,1.70996,0.67383,2.21191s1.01953,0.75293,1.71094,0.75293s1.25879-0.24902,1.70215-0.74707
			s0.66504-1.24512,0.66504-2.24121c0-0.98438-0.21582-1.71875-0.64746-2.20312s-1.00488-0.72656-1.71973-0.72656
			s-1.29102,0.24512-1.72852,0.73535S10.3623,71.46875,10.3623,72.45703z"/>
		<path class="st0" d="M23.90918,76.75781H22.2627v-3.17578c0-0.67188-0.03516-1.10645-0.10547-1.30371
			s-0.18457-0.35059-0.34277-0.45996s-0.34863-0.16406-0.57129-0.16406c-0.28516,0-0.54102,0.07812-0.76758,0.23438
			s-0.38184,0.36328-0.46582,0.62109s-0.12598,0.73438-0.12598,1.42969v2.81836H18.2373v-6.22266h1.5293v0.91406
			c0.54297-0.70312,1.22656-1.05469,2.05078-1.05469c0.36328,0,0.69531,0.06543,0.99609,0.19629s0.52832,0.29785,0.68262,0.50098
			s0.26172,0.43359,0.32227,0.69141s0.09082,0.62695,0.09082,1.10742V76.75781z"/>
		<path class="st0" d="M25.5791,76.75781v-8.58984h1.64648v8.58984H25.5791z"/>
		<path class="st0" d="M28.91309,69.69141v-1.52344h1.64648v1.52344H28.91309z M28.91309,76.75781v-6.22266h1.64648v6.22266
			H28.91309z"/>
		<path class="st0" d="M37.90723,76.75781h-1.64648v-3.17578c0-0.67188-0.03516-1.10645-0.10547-1.30371
			s-0.18457-0.35059-0.34277-0.45996s-0.34863-0.16406-0.57129-0.16406c-0.28516,0-0.54102,0.07812-0.76758,0.23438
			s-0.38184,0.36328-0.46582,0.62109s-0.12598,0.73438-0.12598,1.42969v2.81836h-1.64648v-6.22266h1.5293v0.91406
			c0.54297-0.70312,1.22656-1.05469,2.05078-1.05469c0.36328,0,0.69531,0.06543,0.99609,0.19629s0.52832,0.29785,0.68262,0.50098
			s0.26172,0.43359,0.32227,0.69141s0.09082,0.62695,0.09082,1.10742V76.75781z"/>
		<path class="st0" d="M43.18066,74.77734l1.64062,0.27539c-0.21094,0.60156-0.54395,1.05957-0.99902,1.37402
			s-1.02441,0.47168-1.70801,0.47168c-1.08203,0-1.88281-0.35352-2.40234-1.06055c-0.41016-0.56641-0.61523-1.28125-0.61523-2.14453
			c0-1.03125,0.26953-1.83887,0.80859-2.42285s1.2207-0.87598,2.04492-0.87598c0.92578,0,1.65625,0.30566,2.19141,0.91699
			s0.79102,1.54785,0.76758,2.80957h-4.125c0.01172,0.48828,0.14453,0.86816,0.39844,1.13965s0.57031,0.40723,0.94922,0.40723
			c0.25781,0,0.47461-0.07031,0.65039-0.21094S43.09082,75.08984,43.18066,74.77734z M43.27441,73.11328
			c-0.01172-0.47656-0.13477-0.83887-0.36914-1.08691s-0.51953-0.37207-0.85547-0.37207c-0.35938,0-0.65625,0.13086-0.89062,0.39258
			s-0.34961,0.61719-0.3457,1.06641H43.27441z"/>
		<path class="st0" d="M49.60254,68.16797h3.43359c0.67969,0,1.18652,0.02832,1.52051,0.08496s0.63281,0.1748,0.89648,0.35449
			s0.4834,0.41895,0.65918,0.71777s0.26367,0.63379,0.26367,1.00488c0,0.40234-0.1084,0.77148-0.3252,1.10742
			s-0.51074,0.58789-0.88184,0.75586c0.52344,0.15234,0.92578,0.41211,1.20703,0.7793s0.42188,0.79883,0.42188,1.29492
			c0,0.39062-0.09082,0.77051-0.27246,1.13965s-0.42969,0.66406-0.74414,0.88477s-0.70215,0.35645-1.16309,0.40723
			c-0.28906,0.03125-0.98633,0.05078-2.0918,0.05859h-2.92383V68.16797z M51.33691,69.59766v1.98633h1.13672
			c0.67578,0,1.0957-0.00977,1.25977-0.0293c0.29688-0.03516,0.53027-0.1377,0.7002-0.30762s0.25488-0.39355,0.25488-0.6709
			c0-0.26562-0.07324-0.48145-0.21973-0.64746s-0.36426-0.2666-0.65332-0.30176c-0.17188-0.01953-0.66602-0.0293-1.48242-0.0293
			H51.33691z M51.33691,73.01367v2.29688h1.60547c0.625,0,1.02148-0.01758,1.18945-0.05273
			c0.25781-0.04688,0.46777-0.16113,0.62988-0.34277s0.24316-0.4248,0.24316-0.72949c0-0.25781-0.0625-0.47656-0.1875-0.65625
			s-0.30566-0.31055-0.54199-0.39258s-0.74902-0.12305-1.53809-0.12305H51.33691z"/>
		<path class="st0" d="M59.48145,72.43359l-1.49414-0.26953c0.16797-0.60156,0.45703-1.04688,0.86719-1.33594
			s1.01953-0.43359,1.82812-0.43359c0.73438,0,1.28125,0.08691,1.64062,0.26074s0.6123,0.39453,0.75879,0.66211
			s0.21973,0.75879,0.21973,1.47363l-0.01758,1.92188c0,0.54688,0.02637,0.9502,0.0791,1.20996s0.15137,0.53809,0.2959,0.83496
			h-1.62891c-0.04297-0.10938-0.0957-0.27148-0.1582-0.48633c-0.02734-0.09766-0.04688-0.16211-0.05859-0.19336
			c-0.28125,0.27344-0.58203,0.47852-0.90234,0.61523s-0.66211,0.20508-1.02539,0.20508c-0.64062,0-1.14551-0.17383-1.51465-0.52148
			s-0.55371-0.78711-0.55371-1.31836c0-0.35156,0.08398-0.66504,0.25195-0.94043s0.40332-0.48633,0.70605-0.63281
			s0.73926-0.27441,1.30957-0.38379c0.76953-0.14453,1.30273-0.2793,1.59961-0.4043V72.5332
			c0-0.31641-0.07812-0.54199-0.23438-0.67676s-0.45117-0.20215-0.88477-0.20215c-0.29297,0-0.52148,0.05762-0.68555,0.17285
			S59.58301,72.14453,59.48145,72.43359z M61.68457,73.76953c-0.21094,0.07031-0.54492,0.1543-1.00195,0.25195
			s-0.75586,0.19336-0.89648,0.28711c-0.21484,0.15234-0.32227,0.3457-0.32227,0.58008c0,0.23047,0.08594,0.42969,0.25781,0.59766
			s0.39062,0.25195,0.65625,0.25195c0.29688,0,0.58008-0.09766,0.84961-0.29297c0.19922-0.14844,0.33008-0.33008,0.39258-0.54492
			c0.04297-0.14062,0.06445-0.4082,0.06445-0.80273V73.76953z"/>
		<path class="st0" d="M70.58496,76.75781h-1.64648v-3.17578c0-0.67188-0.03516-1.10645-0.10547-1.30371
			s-0.18457-0.35059-0.34277-0.45996s-0.34863-0.16406-0.57129-0.16406c-0.28516,0-0.54102,0.07812-0.76758,0.23438
			s-0.38184,0.36328-0.46582,0.62109s-0.12598,0.73438-0.12598,1.42969v2.81836h-1.64648v-6.22266h1.5293v0.91406
			c0.54297-0.70312,1.22656-1.05469,2.05078-1.05469c0.36328,0,0.69531,0.06543,0.99609,0.19629s0.52832,0.29785,0.68262,0.50098
			s0.26172,0.43359,0.32227,0.69141s0.09082,0.62695,0.09082,1.10742V76.75781z"/>
		<path class="st0" d="M72.19629,76.75781v-8.58984h1.64648v4.55859l1.92773-2.19141h2.02734l-2.12695,2.27344l2.2793,3.94922
			H76.1748l-1.56445-2.79492l-0.76758,0.80273v1.99219H72.19629z"/>
		<path class="st0" d="M78.92871,69.69141v-1.52344h1.64648v1.52344H78.92871z M78.92871,76.75781v-6.22266h1.64648v6.22266
			H78.92871z"/>
		<path class="st0" d="M87.92285,76.75781h-1.64648v-3.17578c0-0.67188-0.03516-1.10645-0.10547-1.30371
			s-0.18457-0.35059-0.34277-0.45996s-0.34863-0.16406-0.57129-0.16406c-0.28516,0-0.54102,0.07812-0.76758,0.23438
			s-0.38184,0.36328-0.46582,0.62109s-0.12598,0.73438-0.12598,1.42969v2.81836h-1.64648v-6.22266h1.5293v0.91406
			c0.54297-0.70312,1.22656-1.05469,2.05078-1.05469c0.36328,0,0.69531,0.06543,0.99609,0.19629s0.52832,0.29785,0.68262,0.50098
			s0.26172,0.43359,0.32227,0.69141s0.09082,0.62695,0.09082,1.10742V76.75781z"/>
		<path class="st0" d="M89.44043,77.16797l1.88086,0.22852c0.03125,0.21875,0.10352,0.36914,0.2168,0.45117
			c0.15625,0.11719,0.40234,0.17578,0.73828,0.17578c0.42969,0,0.75195-0.06445,0.9668-0.19336
			c0.14453-0.08594,0.25391-0.22461,0.32812-0.41602c0.05078-0.13672,0.07617-0.38867,0.07617-0.75586V75.75
			c-0.49219,0.67188-1.11328,1.00781-1.86328,1.00781c-0.83594,0-1.49805-0.35352-1.98633-1.06055
			c-0.38281-0.55859-0.57422-1.25391-0.57422-2.08594c0-1.04297,0.25098-1.83984,0.75293-2.39062s1.12598-0.82617,1.87207-0.82617
			c0.76953,0,1.4043,0.33789,1.9043,1.01367v-0.87305h1.54102v5.58398c0,0.73438-0.06055,1.2832-0.18164,1.64648
			s-0.29102,0.64844-0.50977,0.85547s-0.51074,0.36914-0.87598,0.48633s-0.82715,0.17578-1.38574,0.17578
			c-1.05469,0-1.80273-0.18066-2.24414-0.54199s-0.66211-0.81934-0.66211-1.37402
			C89.43457,77.3125,89.43652,77.24609,89.44043,77.16797z M90.91113,73.51758c0,0.66016,0.12793,1.14355,0.38379,1.4502
			s0.57129,0.45996,0.94629,0.45996c0.40234,0,0.74219-0.15723,1.01953-0.47168s0.41602-0.78027,0.41602-1.39746
			c0-0.64453-0.13281-1.12305-0.39844-1.43555s-0.60156-0.46875-1.00781-0.46875c-0.39453,0-0.71973,0.15332-0.97559,0.45996
			S90.91113,72.88867,90.91113,73.51758z"/>
		<path class="st0" d="M100.26855,76.75781v-8.58984h2.7832c1.05469,0,1.74219,0.04297,2.0625,0.12891
			c0.49219,0.12891,0.9043,0.40918,1.23633,0.84082s0.49805,0.98926,0.49805,1.67285c0,0.52734-0.0957,0.9707-0.28711,1.33008
			s-0.43457,0.6416-0.72949,0.84668s-0.59473,0.34082-0.89941,0.40723c-0.41406,0.08203-1.01367,0.12305-1.79883,0.12305h-1.13086
			v3.24023H100.26855z M102.00293,69.62109v2.4375h0.94922c0.68359,0,1.14062-0.04492,1.37109-0.13477
			s0.41113-0.23047,0.54199-0.42188s0.19629-0.41406,0.19629-0.66797c0-0.3125-0.0918-0.57031-0.27539-0.77344
			s-0.41602-0.33008-0.69727-0.38086c-0.20703-0.03906-0.62305-0.05859-1.24805-0.05859H102.00293z"/>
		<path class="st0" d="M109.49121,72.43359l-1.49414-0.26953c0.16797-0.60156,0.45703-1.04688,0.86719-1.33594
			s1.01953-0.43359,1.82812-0.43359c0.73438,0,1.28125,0.08691,1.64062,0.26074s0.6123,0.39453,0.75879,0.66211
			s0.21973,0.75879,0.21973,1.47363l-0.01758,1.92188c0,0.54688,0.02637,0.9502,0.0791,1.20996s0.15137,0.53809,0.2959,0.83496
			h-1.62891c-0.04297-0.10938-0.0957-0.27148-0.1582-0.48633c-0.02734-0.09766-0.04688-0.16211-0.05859-0.19336
			c-0.28125,0.27344-0.58203,0.47852-0.90234,0.61523s-0.66211,0.20508-1.02539,0.20508c-0.64062,0-1.14551-0.17383-1.51465-0.52148
			s-0.55371-0.78711-0.55371-1.31836c0-0.35156,0.08398-0.66504,0.25195-0.94043s0.40332-0.48633,0.70605-0.63281
			s0.73926-0.27441,1.30957-0.38379c0.76953-0.14453,1.30273-0.2793,1.59961-0.4043V72.5332
			c0-0.31641-0.07812-0.54199-0.23438-0.67676s-0.45117-0.20215-0.88477-0.20215c-0.29297,0-0.52148,0.05762-0.68555,0.17285
			S109.59277,72.14453,109.49121,72.43359z M111.69434,73.76953c-0.21094,0.07031-0.54492,0.1543-1.00195,0.25195
			s-0.75586,0.19336-0.89648,0.28711c-0.21484,0.15234-0.32227,0.3457-0.32227,0.58008c0,0.23047,0.08594,0.42969,0.25781,0.59766
			s0.39062,0.25195,0.65625,0.25195c0.29688,0,0.58008-0.09766,0.84961-0.29297c0.19922-0.14844,0.33008-0.33008,0.39258-0.54492
			c0.04297-0.14062,0.06445-0.4082,0.06445-0.80273V73.76953z"/>
		<path class="st0" d="M114.15527,70.53516h1.75195l1.48828,4.41797l1.45312-4.41797h1.70508l-2.19727,5.98828l-0.39258,1.08398
			c-0.14453,0.36328-0.28223,0.64062-0.41309,0.83203s-0.28125,0.34668-0.45117,0.46582s-0.37891,0.21191-0.62695,0.27832
			s-0.52832,0.09961-0.84082,0.09961c-0.31641,0-0.62695-0.0332-0.93164-0.09961l-0.14648-1.28906
			c0.25781,0.05078,0.49023,0.07617,0.69727,0.07617c0.38281,0,0.66602-0.1123,0.84961-0.33691s0.32422-0.51074,0.42188-0.8584
			L114.15527,70.53516z"/>
		<path class="st0" d="M121.48535,70.53516h1.51758v0.84961c0.54297-0.66016,1.18945-0.99023,1.93945-0.99023
			c0.39844,0,0.74414,0.08203,1.03711,0.24609s0.5332,0.41211,0.7207,0.74414c0.27344-0.33203,0.56836-0.58008,0.88477-0.74414
			s0.6543-0.24609,1.01367-0.24609c0.45703,0,0.84375,0.09277,1.16016,0.27832s0.55273,0.45801,0.70898,0.81738
			c0.11328,0.26562,0.16992,0.69531,0.16992,1.28906v3.97852h-1.64648v-3.55664c0-0.61719-0.05664-1.01562-0.16992-1.19531
			c-0.15234-0.23438-0.38672-0.35156-0.70312-0.35156c-0.23047,0-0.44727,0.07031-0.65039,0.21094s-0.34961,0.34668-0.43945,0.61816
			s-0.13477,0.7002-0.13477,1.28613v2.98828h-1.64648v-3.41016c0-0.60547-0.0293-0.99609-0.08789-1.17188
			s-0.14941-0.30664-0.27246-0.39258s-0.29004-0.12891-0.50098-0.12891c-0.25391,0-0.48242,0.06836-0.68555,0.20508
			s-0.34863,0.33398-0.43652,0.5918s-0.13184,0.68555-0.13184,1.2832v3.02344h-1.64648V70.53516z"/>
		<path class="st0" d="M135.88184,74.77734l1.64062,0.27539c-0.21094,0.60156-0.54395,1.05957-0.99902,1.37402
			s-1.02441,0.47168-1.70801,0.47168c-1.08203,0-1.88281-0.35352-2.40234-1.06055c-0.41016-0.56641-0.61523-1.28125-0.61523-2.14453
			c0-1.03125,0.26953-1.83887,0.80859-2.42285s1.2207-0.87598,2.04492-0.87598c0.92578,0,1.65625,0.30566,2.19141,0.91699
			s0.79102,1.54785,0.76758,2.80957h-4.125c0.01172,0.48828,0.14453,0.86816,0.39844,1.13965s0.57031,0.40723,0.94922,0.40723
			c0.25781,0,0.47461-0.07031,0.65039-0.21094S135.79199,75.08984,135.88184,74.77734z M135.97559,73.11328
			c-0.01172-0.47656-0.13477-0.83887-0.36914-1.08691s-0.51953-0.37207-0.85547-0.37207c-0.35938,0-0.65625,0.13086-0.89062,0.39258
			s-0.34961,0.61719-0.3457,1.06641H135.97559z"/>
		<path class="st0" d="M144.6123,76.75781h-1.64648v-3.17578c0-0.67188-0.03516-1.10645-0.10547-1.30371
			s-0.18457-0.35059-0.34277-0.45996s-0.34863-0.16406-0.57129-0.16406c-0.28516,0-0.54102,0.07812-0.76758,0.23438
			s-0.38184,0.36328-0.46582,0.62109s-0.12598,0.73438-0.12598,1.42969v2.81836h-1.64648v-6.22266h1.5293v0.91406
			c0.54297-0.70312,1.22656-1.05469,2.05078-1.05469c0.36328,0,0.69531,0.06543,0.99609,0.19629s0.52832,0.29785,0.68262,0.50098
			s0.26172,0.43359,0.32227,0.69141s0.09082,0.62695,0.09082,1.10742V76.75781z"/>
		<path class="st0" d="M149.13574,70.53516v1.3125h-1.125v2.50781c0,0.50781,0.01074,0.80371,0.03223,0.8877
			s0.07031,0.15332,0.14648,0.20801s0.16895,0.08203,0.27832,0.08203c0.15234,0,0.37305-0.05273,0.66211-0.1582l0.14062,1.27734
			c-0.38281,0.16406-0.81641,0.24609-1.30078,0.24609c-0.29688,0-0.56445-0.0498-0.80273-0.14941s-0.41309-0.22852-0.52441-0.38672
			s-0.18848-0.37207-0.23145-0.6416c-0.03516-0.19141-0.05273-0.57812-0.05273-1.16016v-2.71289h-0.75586v-1.3125h0.75586v-1.23633
			l1.65234-0.96094v2.19727H149.13574z"/>
		<path class="st0" d="M149.69824,74.98242l1.65234-0.25195c0.07031,0.32031,0.21289,0.56348,0.42773,0.72949
			s0.51562,0.24902,0.90234,0.24902c0.42578,0,0.74609-0.07812,0.96094-0.23438c0.14453-0.10938,0.2168-0.25586,0.2168-0.43945
			c0-0.125-0.03906-0.22852-0.11719-0.31055c-0.08203-0.07812-0.26562-0.15039-0.55078-0.2168
			c-1.32812-0.29297-2.16992-0.56055-2.52539-0.80273c-0.49219-0.33594-0.73828-0.80273-0.73828-1.40039
			c0-0.53906,0.21289-0.99219,0.63867-1.35938s1.08594-0.55078,1.98047-0.55078c0.85156,0,1.48438,0.13867,1.89844,0.41602
			s0.69922,0.6875,0.85547,1.23047l-1.55273,0.28711c-0.06641-0.24219-0.19238-0.42773-0.37793-0.55664
			s-0.4502-0.19336-0.79395-0.19336c-0.43359,0-0.74414,0.06055-0.93164,0.18164c-0.125,0.08594-0.1875,0.19727-0.1875,0.33398
			c0,0.11719,0.05469,0.2168,0.16406,0.29883c0.14844,0.10938,0.66113,0.26367,1.53809,0.46289s1.48926,0.44336,1.83691,0.73242
			c0.34375,0.29297,0.51562,0.70117,0.51562,1.22461c0,0.57031-0.23828,1.06055-0.71484,1.4707s-1.18164,0.61523-2.11523,0.61523
			c-0.84766,0-1.51855-0.17188-2.0127-0.51562S149.85059,75.57227,149.69824,74.98242z"/>
	</g>
</g>
</svg>
