<?xml version="1.0" encoding="utf-8"?>
<!-- Generator: Adobe Illustrator 26.5.1, SVG Export Plug-In . SVG Version: 6.00 Build 0)  -->
<svg version="1.1" id="Layer_1" xmlns="http://www.w3.org/2000/svg" xmlns:xlink="http://www.w3.org/1999/xlink" x="0px" y="0px" viewBox="0 0 150.40901 90" style="enable-background:new 0 0 150.40901 90;" xml:space="preserve" class="hc5f3e1rrds5_tcmaa483aac" >
<style type="text/css">.hc5f3e1rrds5_tcmaa483aac .st0{fill:#FBB229;} .hc5f3e1rrds5_tcmaa483aac .st1{fill:#E92433;} .hc5f3e1rrds5_tcmaa483aac .st2{fill:#FFFFFF;} </style>
<g>
	<g>
		<path class="st0" d="M75.20451,78.35287C83.1917,85.58772,93.78684,90,105.40974,90
			c24.8556,0,44.99928-20.14999,44.99928-45.00072C150.40901,20.14786,130.26534,0,105.40974,0
			C93.78685,0,83.1917,4.41023,75.20451,11.64641c-9.08447,8.23228-14.79408,20.1244-14.79408,33.35287
			C60.41043,58.22366,66.12004,70.1165,75.20451,78.35287"/>
		<path class="st1" d="M89.74659,40.2336c-0.16773-1.61386-0.42518-3.20428-0.76134-4.76222H61.42653
			c0.35066-1.62349,0.7883-3.21325,1.30666-4.76703h24.94536c-0.54532-1.63182-1.18107-3.22224-1.90586-4.76294H64.64838
			c0.77039-1.64836,1.64249-3.2353,2.59859-4.7664h15.93301c-1.04025-1.66356-2.18817-3.25398-3.43209-4.76288h-9.07815
			c1.39673-1.69466,2.91023-3.29059,4.53787-4.76712C67.22004,4.41156,56.62526,0.00141,44.99928,0.00141
			C20.1468,0.00141,0,20.1465,0,45.00069c0,24.85215,20.1468,44.99582,44.99928,44.99582
			c11.62599,0,22.22076-4.40882,30.20833-11.64365c1.62453-1.47788,3.14384-3.06898,4.54028-4.76562h-9.07815
			c-1.24355-1.51038-2.38251-3.10213-3.42277-4.76571h15.93301c0.956-1.53101,1.82233-3.12009,2.59273-4.76498H64.64838
			c-0.72205-1.54347-1.3695-3.12905-1.91518-4.76295h24.94536c0.5184-1.5552,0.95947-3.14355,1.30666-4.76844
			c0.33617-1.55866,0.59361-3.14701,0.76134-4.76222c0.16773-1.56489,0.25199-3.156,0.25199-4.76225
			C89.99858,43.3896,89.91432,41.7999,89.74659,40.2336"/>
		<g>
			<path class="st2" d="M104.9721,34.67553l-0.80008,4.95408c-1.74152-0.87796-3.0089-1.2314-4.36118-1.2314
				c-3.65015,0-6.20695,3.52454-6.20695,8.54768c0,3.46729,1.72079,5.55957,4.5586,5.55957
				c1.20179,0,2.53264-0.37208,4.15129-1.16934l-0.8601,5.20054c-1.8016,0.49147-2.96126,0.66817-4.31628,0.66817
				c-5.25646,0-8.53529-3.7793-8.53529-9.85167c0-8.16258,4.52544-13.86491,11.00233-13.86491
				c0.83041,0,1.5642,0.07939,2.18478,0.23539l2.00248,0.5039C104.41159,34.44905,104.54064,34.4988,104.9721,34.67553"/>
			<path class="st2" d="M89.29449,38.07099c-0.14704-0.02969-0.312-0.04488-0.49217-0.04488
				c-1.60007,0-2.51396,0.81795-4.00978,3.01377l0.42863-2.8143h-4.41778l-2.97922,18.56574h4.88853
				c1.74429-11.35299,2.20888-13.31204,4.5496-13.31204c0.15255,0,0.16428-0.00277,0.35963,0.02142
				c0.43414-2.24338,1.03403-3.889,1.85475-5.38623L89.29449,38.07099"/>
			<path class="st2" d="M61.1539,56.5601c-1.33982,0.42313-2.37974,0.60257-3.50977,0.60257
				c-2.49637,0-3.86037-1.43848-3.86037-4.07608c0-0.52117,0.04798-1.07885,0.14391-1.66356l0.29681-1.81887l0.22781-1.46895
				l2.11884-12.66591h4.85538L60.866,38.22557h2.49369l-0.67128,4.51513h-2.50266l-1.28561,7.74426
				c-0.06007,0.33616-0.08389,0.59361-0.08389,0.76757c0,0.956,0.50327,1.37296,1.66638,1.37296
				c0.55735,0,0.98605-0.05457,1.31876-0.17397L61.1539,56.5601"/>
			<path class="st2" d="M42.38863,44.09225c0,2.34695,1.13893,3.95945,3.71369,5.17645
				c1.97493,0.92907,2.28071,1.20177,2.28071,2.0439c0,1.15689-0.86906,1.67805-2.79947,1.67805
				c-1.45334,0-2.80838-0.22781-4.3698-0.73447l-0.6744,4.2832l0.21885,0.04211l0.89325,0.18569
				c0.28782,0.06002,0.7161,0.1139,1.27664,0.1622c1.16002,0.1049,2.056,0.15531,2.68862,0.15531
				c5.14603,0,7.52578-1.95974,7.52578-6.19183c0-2.54784-0.99502-4.0402-3.44073-5.16739
				c-2.04427-0.93946-2.28098-1.14729-2.28098-2.01085c0-1.00365,0.81245-1.51654,2.38871-1.51654
				c0.95636,0,2.26579,0.10496,3.50384,0.28027l0.69823-4.29905c-1.26461-0.20089-3.1798-0.36312-4.29493-0.36312
				C44.26203,37.81625,42.37377,40.67126,42.38863,44.09225"/>
			<path class="st2" d="M142.26581,56.79131h-4.61867l0.24023-1.82232c-1.34328,1.43235-2.728,2.06186-4.51991,2.06186
				c-3.55154,0-5.8985-3.06275-5.8985-7.7056c0-6.17522,3.64125-11.38268,7.94855-11.38268
				c1.8969,0,3.34166,0.78213,4.67874,2.54161l1.06995-6.51897h4.81877L142.26581,56.79131 M135.05794,52.41841
				c2.27788,0,3.87796-2.58027,3.87796-6.25806c0-2.36142-0.90773-3.63848-2.58923-3.63848
				c-2.22133,0-3.79175,2.58649-3.79175,6.23671C132.55492,51.18629,133.39432,52.41841,135.05794,52.41841"/>
			<path class="st2" d="M76.07357,56.3834c-1.67219,0.5129-3.29369,0.76134-5.00212,0.75521
				c-5.46081-0.00283-8.30508-2.85296-8.30508-8.31379c0-6.37193,3.62052-11.06102,8.52979-11.06102
				c4.02534,0,6.59077,2.62446,6.59077,6.74678c0,1.36818-0.1767,2.70177-0.6026,4.58071h-9.7074
				c-0.03628,0.28506-0.04524,0.41068-0.04524,0.57841c0,2.15855,1.4479,3.25536,4.2801,3.25536
				c1.74745,0,3.32092-0.35963,5.07423-1.17831L76.07357,56.3834 M73.33143,45.34516
				c0.03006-0.38658,0.04488-0.70551,0.04488-0.94568c0-1.51032-0.85733-2.39325-2.31074-2.39325
				c-1.55556,0-2.66447,1.1873-3.11726,3.3272L73.33143,45.34516z"/>
			<polygon class="st2" points="23.86913,56.78791 18.98405,56.78791 21.78313,39.24309 15.534,56.78791 12.20723,56.78791 
				11.79062,39.34522 8.85353,56.78791 4.27974,56.78791 8.10109,33.9638 15.12642,33.9638 15.32144,48.09313 20.05987,33.9638 
				27.64566,33.9638 			"/>
			<path class="st2" d="M35.89688,48.51903c-0.51253-0.06001-0.73716-0.0752-1.09095-0.0752
				c-2.76633,0-4.16898,0.95049-4.16898,2.82393c0,1.15343,0.68614,1.89067,1.75022,1.89067
				C34.37724,53.15839,35.81305,51.26426,35.89688,48.51903 M39.45147,56.78791h-4.04916l0.09599-1.92382
				c-1.23804,1.52274-2.88641,2.24479-5.12224,2.24479c-2.64657,0-4.46267-2.0681-4.46267-5.07146
				c0-4.51928,3.1591-7.15342,8.5778-7.15342c0.55458,0,1.26491,0.04906,1.98729,0.14364
				c0.15564-0.61298,0.19466-0.87394,0.19466-1.20526c0-1.23146-0.85423-1.68843-3.13494-1.68843
				c-1.39092,0-2.96712,0.19947-4.05229,0.51563l-0.68027,0.19884l-0.4376,0.11735l0.67717-4.17066
				c2.43389-0.71514,4.0402-0.98437,5.84456-0.98437c4.1959,0,6.41413,1.88649,6.41413,5.44421
				c0,0.91394-0.07216,1.61049-0.3959,3.67855l-1.02197,6.57904l-0.16774,1.18658l-0.12595,0.94153l-0.087,0.644L39.45147,56.78791z
				"/>
			<path class="st2" d="M112.85506,48.51903c-0.51012-0.06001-0.73787-0.0752-1.09131-0.0752
				c-2.76596,0-4.16934,0.95049-4.16934,2.82393c0,1.15343,0.68683,1.89067,1.75058,1.89067
				C111.33852,53.15839,112.7709,51.26426,112.85506,48.51903 M116.40929,56.78791h-4.04916l0.09599-1.92382
				c-1.23769,1.52274-2.88605,2.24479-5.12187,2.24479c-2.64657,0-4.46266-2.0681-4.46266-5.07146
				c0-4.51928,3.15254-7.15342,8.57744-7.15342c0.55149,0,1.26178,0.04906,1.9873,0.14364
				c0.15251-0.61298,0.19465-0.87394,0.19465-1.20526c0-1.23146-0.85387-1.68843-3.13528-1.68843
				c-1.39363,0-2.96679,0.19947-4.05193,0.51563l-0.67992,0.19884l-0.4376,0.11735l0.67717-4.17066
				c2.43389-0.71514,4.0402-0.98437,5.84457-0.98437c4.19554,0,6.41341,1.88649,6.41341,5.44421
				c0,0.91394-0.07458,1.61049-0.39555,3.67855l-1.02161,6.57904l-0.16774,1.18658l-0.1263,0.94153l-0.08703,0.644
				L116.40929,56.78791z"/>
			<path class="st2" d="M129.51013,38.07099c-0.14978-0.02969-0.31201-0.04488-0.48871-0.04488
				c-1.60622,0-2.51743,0.81795-4.01324,3.01377l0.4286-2.8143H121.019l-2.97575,18.56574h4.88507
				c1.75058-11.35299,2.2089-13.31204,4.55236-13.31204c0.14978,0,0.14427-0.0055,0.33617,0.01796
				c0.43768-2.23992,1.0368-3.88552,1.85823-5.38278L129.51013,38.07099"/>
		</g>
	</g>
</g>
</svg>
