<?xml version="1.0" encoding="utf-8"?>
<!-- Generator: Adobe Illustrator 23.0.1, SVG Export Plug-In . SVG Version: 6.00 Build 0)  -->
<svg version="1.1" id="Layer_1" xmlns="http://www.w3.org/2000/svg" xmlns:xlink="http://www.w3.org/1999/xlink" x="0px" y="0px" viewBox="0 0 185.91875 185.91591" style="enable-background:new 0 0 185.91875 185.91591;" xml:space="preserve" class="h0Tobo72Gau0heaN2acc9" >
<style type="text/css">.h0Tobo72Gau0heaN2acc9 .st0{fill:#0D60A8;} .h0Tobo72Gau0heaN2acc9 .st1{fill:#FFFFFF;} .h0Tobo72Gau0heaN2acc9 .st2{fill:#F8D704;} </style>
<g>
	<path class="st0" d="M148.22157-0.00005h-110.522c-20.7832,0-37.6997,16.9155-37.6997,37.6977v110.52301
		c0,20.78709,16.9165,37.6953,37.6997,37.6953h110.522c20.78029,0,37.6973-16.9082,37.6973-37.6953V37.69765
		C185.91887,16.91545,169.00186-0.00005,148.22157-0.00005"/>
	<path class="st1" d="M73.66687,76.95545h-9.6347c-2.81989,0-6.4756,1.9952-7.5347,4.6543l0.9765-5.0976h-11.7729l-5.2266,29.3052
		h11.78181l3.25629-18.5474h12.6704c0,0-1.62109,9.187-2.34369,13.3042c-0.71681,4.1104,2.07469,5.1172,3.45409,5.1172h6.1587
		l4.018-22.8023C79.14297,79.62735,76.93247,76.95545,73.66687,76.95545"/>
	<polygon class="st1" points="37.20937,76.51215 35.00867,89.07955 43.95547,76.51215 	"/>
	<polygon class="st1" points="51.18447,30.58975 11.77817,30.58975 10.06577,40.31045 23.82117,40.31045 18.31187,71.60785 
		30.18107,71.60785 35.71867,40.31045 49.46867,40.31045 	"/>
	<path class="st1" d="M59.34267,61.99795l1.72361-9.7915H50.51117l-1.7276,9.7915H59.34267z M42.70157,71.60835
		c-3.2617,0-5.459-2.669-4.8862-5.9375l3.0263-17.145c0.5679-3.2618,3.7251-5.9361,6.9741-5.9361h19.3208
		c3.2696,0,5.47471,2.6743,4.876,5.9361l-3.0141,17.145c-0.5787,3.2685-3.72319,5.9375-6.9746,5.9375H42.70157z"/>
	<path class="st1" d="M120.43057,61.99745l1.7373-9.792h15.2949l1.69141-9.6162h-19.67089c-3.26852,0-6.417,2.6758-6.99021,5.9361
		l-3.0205,17.145c-0.5781,3.2695,1.62009,5.9287,4.89349,5.9287h19.1319l1.6855-9.6016H120.43057z"/>
	<path class="st1" d="M96.38567,61.99745h-12.9439l3.4112-19.4082h-10.3111l-4.0537,23.0811
		c-0.5825,3.2695,1.6152,5.9287,4.8804,5.9287h10.0571c3.26611,0,5.936-1.9326,8.0371-4.4585c0,0,1.1611,3.3706,2.8076,4.1206
		c1.6768,0.7651,6.6983,0.5825,6.6983,0.5825l5.1679-29.2544h-10.3232L96.38567,61.99745z"/>
	<path class="st1" d="M170.76357,42.74305h-9.6221c-2.83299,0-5.56929,2.0005-6.62199,4.6597l2.7675-15.771h-10.84569
		l-7.05072,39.9658h10.86421l3.26079-18.5464h11.76851c0,0-1.6113,9.1783-2.33591,13.3101
		c-0.72949,4.1001,2.06931,5.1074,3.4297,5.1074h5.2587l4.0206-22.79C176.22647,45.40275,174.03307,42.74305,170.76357,42.74305"/>
	<path class="st1" d="M132.08386,115.57906c-4.38279,0-7.34958-3.62991-6.57909-8.001l4.06152-23.0435
		c0.76859-4.3969,5.01079-7.996,9.40918-7.996h24.58011c4.3799,0,7.3535,3.5991,6.58099,7.996l-4.0634,23.0435
		c-0.7774,4.37109-5.01469,8.001-9.39749,8.001H132.08386z M154.98228,104.80365l3.09868-17.4946h-17.4278l-3.09081,17.4946
		H154.98228z"/>
	<path class="st1" d="M108.25377,104.80365h-17.4336l3.0826-17.4946h28.2651l1.8623-10.7705H92.23228
		c-4.40331,0-8.6235,3.5991-9.39251,7.996l-4.0713,23.0435c-0.7739,4.37109,2.1816,8.001,6.5752,8.001h24.5888
		c4.3956,0,8.6377-3.62991,9.3975-8.001l2.48831-14.1431h-11.57621L108.25377,104.80365z"/>
	<polygon class="st2" points="90.86128,133.94035 79.54047,157.27435 72.35928,157.27435 71.51117,143.15616 64.64887,157.27435 
		57.43207,157.27435 56.05017,133.94035 61.16247,133.94035 62.05307,152.24706 70.85437,133.94035 76.05557,133.94035 
		76.94467,152.24706 85.74697,133.94035 	"/>
	<polygon class="st2" points="112.24017,157.27435 107.24797,157.27435 112.20597,133.94135 117.19128,133.94135 	"/>
	<polygon class="st2" points="120.44328,157.27435 115.43737,157.27435 120.39447,133.94135 125.38267,133.94135 	"/>
	<path class="st2" d="M154.92177,157.27435h-4.02049c-1.85161,0-3.15631-0.1797-3.8838-0.53999
		c-0.73531-0.37021-1.09669-1.0997-1.09669-2.22171c0-0.6172,0.09669-1.34869,0.2793-2.18849l3.8985-18.38281h4.9892l-1.2529,5.8076
		h4.8223l-0.9297,4.21481h-4.74809l-1.4238,6.65529c-0.1279,0.6709-0.19629,1.12401-0.19629,1.3389
		c0,0.4619,0.14648,0.76561,0.46579,0.8867c0.3096,0.14551,0.93849,0.21091,1.8819,0.21091h2.1142L154.92177,157.27435z"/>
	<path class="st2" d="M52.93347,140.26945c-0.7304-0.3672-2.0273-0.55861-3.893-0.55861h-7.1407
		c-2.0483,0-3.62249,0.37401-4.6904,1.1524c-1.0625,0.7646-1.7949,2.0507-2.1685,3.8369l-1.5825,7.5869
		c-0.1128,0.4619-0.1963,0.8701-0.2397,1.2285c-0.0596,0.3672-0.084,0.70311-0.084,0.9971c0,0.5488,0.084,0.9873,0.249,1.3232
		c0.1538,0.33791,0.4238,0.60941,0.8062,0.8233c0.3823,0.22461,0.8886,0.3701,1.5405,0.45111
		c0.6572,0.09479,1.4541,0.12009,2.4385,0.12009h12.1299l0.894-4.17479h-10.2319c-0.9468,0-1.5747-0.07611-1.8809-0.2285
		c-0.3096-0.14551-0.4746-0.4453-0.4746-0.9062c0-0.33209,0.0625-0.7569,0.165-1.3018l0.0093-0.0107h2.1099v0.0107h11.5996
		l1.2588-5.9189c0.186-0.87309,0.27931-1.60739,0.27931-2.23149C54.02728,141.37685,53.66497,140.65715,52.93347,140.26945
		 M48.55457,146.40326h-5.5742h-3.3106c0.107-0.543,0.2359-0.9736,0.3848-1.30571c0.1499-0.31929,0.3379-0.5634,0.57371-0.74699
		c0.22419-0.1846,0.52059-0.291,0.88529-0.3457c0.3691-0.0479,0.8188-0.0791,1.3584-0.0791h3.9756
		c1.3003,0,1.9482,0.4072,1.9482,1.2148C48.79577,145.22646,48.71328,145.64345,48.55457,146.40326"/>
	<path class="st2" d="M106.54387,141.12206c-0.1787-0.3477-0.4658-0.62601-0.8575-0.82721
		c-0.3847-0.209-0.9042-0.34859-1.541-0.43069c-0.6318-0.07809-1.4189-0.1171-2.3672-0.1171h-12.0922l-0.90189,4.2187h10.2324
		c0.9424,0,1.5742,0.0703,1.88581,0.20119c0.30659,0.1396,0.46088,0.4355,0.46088,0.8916c0,0.2207-0.05859,0.6611-0.20309,1.3437
		h-3.9912h-3.9131c-1.1597,0-2.1284,0.0645-2.89748,0.1797c-0.77682,0.12399-1.42091,0.3613-1.93851,0.7178
		c-0.5078,0.34669-0.91449,0.83789-1.206,1.49409c-0.30659,0.6563-0.5732,1.5069-0.814,2.5528l-0.20361,0.97751
		c-0.187,0.8389-0.29488,1.56929-0.29488,2.1895c0,0.56729,0.09518,1.03799,0.27389,1.38179
		c0.1792,0.3535,0.4614,0.625,0.85211,0.83891c0.38959,0.19919,0.90179,0.34079,1.53268,0.40909
		c0.64011,0.084,1.43211,0.1299,2.38081,0.1299h12.9068l2.6709-12.5732c0.1855-0.8428,0.2832-1.5752,0.2832-2.18849
		C106.80167,141.94525,106.71667,141.48235,106.54387,141.12206 M92.23628,153.05556c-0.72611,0-1.09621-0.30661-1.09621-0.9355
		c0-0.377,0.1538-0.7197,0.4487-1.03421c0.29881-0.30959,0.6894-0.46779,1.1836-0.46779h5.3877l0.0088-0.0097h2.0918l-0.5186,2.4472
		H92.23628z"/>
	<path class="st2" d="M144.09267,140.26945c-0.7305-0.3672-2.0303-0.55861-3.89549-0.55861h-7.14261
		c-2.0547,0-3.61229,0.37401-4.68069,1.1524c-1.0751,0.7646-1.7978,2.0507-2.1728,3.8369l-1.58791,7.5869
		c-0.1074,0.4619-0.1904,0.8701-0.249,1.2285c-0.04488,0.3672-0.0654,0.70311-0.0654,0.9971c0,0.5488,0.0654,0.9873,0.2421,1.3232
		c0.1563,0.33791,0.4297,0.60941,0.8096,0.8233c0.3779,0.22461,0.88869,0.3701,1.5401,0.45111
		c0.6445,0.09479,1.4589,0.12009,2.43349,0.12009h12.1348l0.8858-4.17479h-10.2227c-0.94429,0-1.5703-0.07611-1.88768-0.2285
		c-0.31151-0.14551-0.46391-0.4453-0.46391-0.9062c0-0.33209,0.05769-0.7569,0.16209-1.3018v-0.0107h2.10451v0.0107h11.6084
		l1.2666-5.9189c0.1875-0.87309,0.2832-1.60739,0.2832-2.23149C145.19518,141.37685,144.82407,140.65715,144.09267,140.26945
		 M139.71088,146.40326h-5.25591h-3.62691c0.10541-0.543,0.23331-0.9736,0.38281-1.30571
		c0.14549-0.31929,0.34079-0.5634,0.56641-0.74699c0.23828-0.1846,0.52629-0.291,0.88768-0.3457
		c0.3652-0.0479,0.8271-0.0791,1.36621-0.0791h3.9785c1.28999,0,1.9473,0.4072,1.9473,1.2148
		C139.95697,145.22646,139.87587,145.64345,139.71088,146.40326"/>
</g>
</svg>
