<?xml version="1.0" encoding="utf-8"?>
<!-- Generator: Adobe Illustrator 26.5.1, SVG Export Plug-In . SVG Version: 6.00 Build 0)  -->
<svg version="1.1" id="Layer_1" xmlns="http://www.w3.org/2000/svg" xmlns:xlink="http://www.w3.org/1999/xlink" x="0px" y="0px" viewBox="0 0 199.89362 90" style="enable-background:new 0 0 199.89362 90;" xml:space="preserve" class="hdivac5s0712c5e56" >
<style type="text/css">.hdivac5s0712c5e56 .st3{fill:#045AA1;} .hdivac5s0712c5e56 .st4{fill:#F9A71C;} </style>
<g>
	<g>
		<polygon class="st3" points="71.68783,73.139 81.25078,17.00211 96.55868,17.00211 86.97839,73.139 		"/>
		<path class="st3" d="M142.48149,18.38517c-3.03069-1.13937-7.78235-2.35853-13.71516-2.35853
			c-15.1192,0-25.77003,7.61307-25.86411,18.52627c-0.08535,8.0652,7.60249,12.5679,13.40709,15.25234
			c5.95917,2.75214,7.9623,4.50761,7.93642,6.96412c-0.04234,3.76321-4.75985,5.47945-9.16049,5.47945
			c-6.12099,0-9.37455-0.84725-14.40014-2.94443l-1.96904-0.89064L96.56693,70.9819
			c3.57018,1.56677,10.17966,2.92323,17.04558,2.99146c16.08688,0,26.52316-7.52443,26.64314-19.18123
			c0.05991-6.38253-4.01505-11.24115-12.84213-15.24947c-5.35074-2.59864-8.63015-4.33006-8.59553-6.96045
			c0-2.33317,2.77387-4.82895,8.76669-4.82895c4.99976-0.07908,8.63017,1.01266,11.44637,2.15097l1.37863,0.64876
			L142.48149,18.38517L142.48149,18.38517z"/>
		<path class="st3" d="M181.71815,17.05589h-11.82274c-3.66455,0-6.40424,0.99996-8.01395,4.65575l-22.72173,51.44856h16.06984
			c0,0,2.61986-6.91706,3.21893-8.43632c1.75497,0,17.36215,0.02528,19.59636,0.02528c0.45436,1.96436,1.85832,8.411,1.85832,8.411
			h14.20319L181.71815,17.05589L181.71815,17.05589z M162.84911,53.24282c1.26698-3.23647,6.09511-15.69554,6.09511-15.69554
			c-0.08528,0.15018,1.25874-3.25099,2.02895-5.35928l1.03644,4.84153c0,0,2.92844,13.40071,3.54413,16.21329H162.84911
			L162.84911,53.24282z"/>
		<path class="st3" d="M58.85455,17.04293L43.8718,55.32707l-1.60094-7.77773c-2.78238-8.9721-11.47223-18.6896-21.18871-23.55216
			l13.69763,49.0994l16.18978-0.02223l24.0913-56.03146H58.85455V17.04293z"/>
		<path class="st4" d="M29.97697,17.00857H5.29455L5.10638,18.175c19.19439,4.64955,31.89957,15.8791,37.16451,29.37434
			l-5.35906-25.80232C35.98679,18.19231,33.29898,17.13312,29.97697,17.00857L29.97697,17.00857z"/>
	</g>
</g>
</svg>
