<?xml version="1.0" encoding="utf-8"?>
<!-- Generator: Adobe Illustrator 23.0.1, SVG Export Plug-In . SVG Version: 6.00 Build 0)  -->
<svg version="1.1" id="layer" xmlns="http://www.w3.org/2000/svg" xmlns:xlink="http://www.w3.org/1999/xlink" x="0px" y="0px" viewBox="0 0 311.30078 99.09921" style="enable-background:new 0 0 311.30078 99.09921;" xml:space="preserve" class="ha9b6mdefa91b8m6" >
<style type="text/css">.ha9b6mdefa91b8m6 .st0{fill:#C1122F;} </style>
<path class="st0" d="M41.8004,17.99962L41.8004,17.99962c-10,0-20.6,4.7-24.5,11c-0.4,0.70001-1,1-1.8,1
	c-1.6,0-2.5-0.89999-2.5-2.10001V-0.00038h-13v96.89999h13V89.1996c0-1.20001,0.9-2.20001,2.1-2.20001s1.8,0.39999,2.2,1
	c3.9,6.29999,14.5,11.10001,24.5,11.10001c19.4,0,40-14.29999,40-40.70001C81.9004,32.19963,61.3004,17.99962,41.8004,17.99962z
	 M67.8004,58.49962L67.8004,58.49962c0,16.20001-11.9,28.5-27.4,28.5c-15.6,0-27.4-12.29999-27.4-28.5s11.7-28.39999,27.4-28.39999
	C55.9004,30.09962,67.8004,42.29964,67.8004,58.49962z M195.8004,48.29964v48.70001h-13v-48.5
	c0-11.39999-7.8-17.39999-15.5-17.39999c-10.60001,0-16.70001,7.20001-16.70001,19.70001v46.20001h-13V50.79967
	c0-12.60001-6.09999-19.70001-16.7-19.70001c-7.8,0-15.6,6-15.6,17.39999v48.5h-13V48.29964c0-20.79999,14.2-30.3,27.5-30.3
	c10.7,0,19.2,5,22.2,12.90001c0.3,0.89999,1.2,1.39999,2.10001,1.39999h0.29999c0.90001,0,1.70001-0.5,2.10001-1.39999
	c2.89999-8,11.3-12.89999,22.2-12.89999l0,0C181.6004,17.99962,195.8004,27.49962,195.8004,48.29964z M311.30038,48.29964v48.70001
	h-13v-48.5c0-11.39999-7.79999-17.39999-15.5-17.39999c-10.60001,0-16.69998,7.20001-16.69998,19.70001v46.20001h-13V50.79967
	c0-12.60001-6.10001-19.70001-16.7-19.70001c-7.7,0-15.5,6-15.5,17.39999v48.5h-13.20001V48.29964c0-20.79999,14.2-30.3,27.5-30.3
	c10.7,0,19.20001,5,22.2,12.90001c0.30002,0.89999,1.20001,1.39999,2,1.39999h0.39999c0.89999,0,1.70001-0.5,2.10001-1.39999
	c2.89999-8,11.5-12.89999,22.20001-12.89999l0,0C297.1004,17.99962,311.30038,27.49962,311.30038,48.29964z"/>
</svg>
